<svg width="333" height="562" viewBox="0 0 333 562" fill="none" xmlns="http://www.w3.org/2000/svg">
<g clip-path="url(#clip0_601_2)">
<path d="M39.1001 269.1L178 28.5996L316.8 269.1H39.1001Z" fill="#2E3A41"/>
<path d="M316.8 268.1L178 508.6L39.1001 268.1H316.8Z" fill="#31F6D5"/>
<path d="M138 0V240.1H0L138 0Z" fill="url(#paint0_linear_601_2)"/>
<path d="M194 561.6L332.8 321.1H192.4L194 561.6Z" fill="url(#paint1_linear_601_2)"/>
<path d="M233 208.6C241.56 208.6 248.5 201.66 248.5 193.1C248.5 184.539 241.56 177.6 233 177.6C224.44 177.6 217.5 184.539 217.5 193.1C217.5 201.66 224.44 208.6 233 208.6Z" fill="#FE1E8E"/>
<path d="M138.5 352C147.06 352 154 345.06 154 336.5C154 327.94 147.06 321 138.5 321C129.94 321 123 327.94 123 336.5C123 345.06 129.94 352 138.5 352Z" fill="#FE1E8E"/>
</g>
<defs>
<linearGradient id="paint0_linear_601_2" x1="51.5183" y1="269.837" x2="189.982" y2="30.0117" gradientUnits="userSpaceOnUse">
<stop stop-color="#222A2E"/>
<stop offset="0.1769" stop-color="#222D31"/>
<stop offset="0.3199" stop-color="#233739"/>
<stop offset="0.4511" stop-color="#244847"/>
<stop offset="0.5752" stop-color="#26605A"/>
<stop offset="0.6944" stop-color="#287F74"/>
<stop offset="0.8098" stop-color="#2BA593"/>
<stop offset="0.9201" stop-color="#2ED1B7"/>
<stop offset="1" stop-color="#31F6D5"/>
</linearGradient>
<linearGradient id="paint1_linear_601_2" x1="262.618" y1="321.093" x2="262.618" y2="561.584" gradientUnits="userSpaceOnUse">
<stop stop-color="#222A2E"/>
<stop offset="0.1769" stop-color="#222D31"/>
<stop offset="0.3199" stop-color="#233739"/>
<stop offset="0.4511" stop-color="#244847"/>
<stop offset="0.5752" stop-color="#26605A"/>
<stop offset="0.6944" stop-color="#287F74"/>
<stop offset="0.8098" stop-color="#2BA593"/>
<stop offset="0.9201" stop-color="#2ED1B7"/>
<stop offset="1" stop-color="#31F6D5"/>
</linearGradient>
<clipPath id="clip0_601_2">
<rect width="332.8" height="561.6" fill="white"/>
</clipPath>
</defs>
</svg>
