<?xml version="1.0" encoding="utf-8"?>
<!-- Generator: Adobe Illustrator 18.0.0, SVG Export Plug-In . SVG Version: 6.00 Build 0)  -->
<!DOCTYPE svg PUBLIC "-//W3C//DTD SVG 1.1//EN" "http://www.w3.org/Graphics/SVG/1.1/DTD/svg11.dtd">
<svg version="1.1" xmlns="http://www.w3.org/2000/svg" xmlns:xlink="http://www.w3.org/1999/xlink" x="0px" y="0px"
	 viewBox="0 0 165.9 89.8" enable-background="new 0 0 165.9 89.8" xml:space="preserve">
<g id="Layer_2">
</g>
<g id="Layer_1">
	<g>
		<g>
			<g>
				<path fill="#31F6D5" d="M0.8,2.7c51.4,24,102.7,48.1,154.1,72.1c1.7,0.8,3.3-1.8,1.5-2.6C105,48.2,53.7,24.2,2.3,0.2
					C0.5-0.7-1,1.9,0.8,2.7L0.8,2.7z"/>
			</g>
		</g>
		<g>
			<g>
				<path fill="#31F6D5" d="M151,57c3.3,7,7.4,13.3,12.3,19.3c0.1-0.8,0.2-1.6,0.3-2.4c-7.2,3.6-13.8,8.1-19.9,13.4
					c-1.5,1.3,0.7,3.4,2.1,2.1c5.9-5.2,12.3-9.4,19.3-12.9c0.9-0.5,0.9-1.7,0.3-2.4c-4.8-5.7-8.7-11.9-11.8-18.7
					C152.8,53.7,150.2,55.3,151,57L151,57z"/>
			</g>
		</g>
	</g>
</g>
<g id="divs" display="none">
</g>
</svg>
