<?xml version="1.0" encoding="utf-8"?>
<!-- Generator: Adobe Illustrator 18.0.0, SVG Export Plug-In . SVG Version: 6.00 Build 0)  -->
<!DOCTYPE svg PUBLIC "-//W3C//DTD SVG 1.1//EN" "http://www.w3.org/Graphics/SVG/1.1/DTD/svg11.dtd">
<svg version="1.1" xmlns="http://www.w3.org/2000/svg" xmlns:xlink="http://www.w3.org/1999/xlink" x="0px" y="0px"
	 viewBox="0 0 1281.4 393.2" enable-background="new 0 0 1281.4 393.2" xml:space="preserve">
<g id="Layer_2">
</g>
<g id="Layer_1">
	<linearGradient id="SVGID_1_" gradientUnits="userSpaceOnUse" x1="556.9156" y1="47.8698" x2="1333.3218" y2="47.8698">
		<stop  offset="0" style="stop-color:#222A2E"/>
		<stop  offset="0.1769" style="stop-color:#222D31"/>
		<stop  offset="0.3199" style="stop-color:#233739"/>
		<stop  offset="0.4511" style="stop-color:#244847"/>
		<stop  offset="0.5752" style="stop-color:#26605A"/>
		<stop  offset="0.6944" style="stop-color:#287F74"/>
		<stop  offset="0.8098" style="stop-color:#2BA593"/>
		<stop  offset="0.9201" style="stop-color:#2ED1B7"/>
		<stop  offset="1" style="stop-color:#31F6D5"/>
	</linearGradient>
	<polygon fill="url(#SVGID_1_)" points="1304.3,-486.1 1333.3,247.9 713.7,581.9 556.9,299.9 	"/>
	<g>
		<g>
			<line fill="none" stroke="#E4F2D3" stroke-miterlimit="10" x1="108.8" y1="-226.1" x2="108.8" y2="455.9"/>
			<line fill="none" stroke="#E4F2D3" stroke-miterlimit="10" x1="150.8" y1="-201.1" x2="150.8" y2="464.9"/>
			<line fill="none" stroke="#E4F2D3" stroke-miterlimit="10" x1="233.8" y1="-152.1" x2="233.8" y2="481.9"/>
			<line fill="none" stroke="#E4F2D3" stroke-miterlimit="10" x1="307.8" y1="-108.1" x2="307.8" y2="497.9"/>
			<line fill="none" stroke="#E4F2D3" stroke-miterlimit="10" x1="190.8" y1="-178.1" x2="190.8" y2="473.9"/>
			<line fill="none" stroke="#E4F2D3" stroke-miterlimit="10" x1="268.8" y1="-130.1" x2="268.8" y2="489.9"/>
			<line fill="none" stroke="#E4F2D3" stroke-miterlimit="10" x1="404.8" y1="-50.1" x2="404.8" y2="517.9"/>
			<line fill="none" stroke="#E4F2D3" stroke-miterlimit="10" x1="489.8" y1="1.9" x2="489.8" y2="536.9"/>
			<line fill="none" stroke="#E4F2D3" stroke-miterlimit="10" x1="371.8" y1="-69.1" x2="371.8" y2="510.9"/>
			<line fill="none" stroke="#E4F2D3" stroke-miterlimit="10" x1="460.8" y1="-15.1" x2="460.8" y2="530.9"/>
			<line fill="none" stroke="#E4F2D3" stroke-miterlimit="10" x1="593.8" y1="62.9" x2="593.8" y2="557.9"/>
			<line fill="none" stroke="#E4F2D3" stroke-miterlimit="10" x1="675.8" y1="112.9" x2="675.8" y2="575.9"/>
			<line fill="none" stroke="#E4F2D3" stroke-miterlimit="10" x1="567.8" y1="47.9" x2="567.8" y2="552.9"/>
			<line fill="none" stroke="#E4F2D3" stroke-miterlimit="10" x1="657.8" y1="101.9" x2="657.8" y2="571.9"/>
			<line fill="none" stroke="#E4F2D3" stroke-miterlimit="10" x1="735.8" y1="148.9" x2="735.8" y2="588.9"/>
			<line fill="none" stroke="#E4F2D3" stroke-miterlimit="10" x1="789.8" y1="180.9" x2="789.8" y2="599.9"/>
			<line fill="none" stroke="#E4F2D3" stroke-miterlimit="10" x1="340.8" y1="-89.1" x2="340.8" y2="503.9"/>
			<line fill="none" stroke="#E4F2D3" stroke-miterlimit="10" x1="432.8" y1="-33.1" x2="432.8" y2="523.9"/>
			<line fill="none" stroke="#E4F2D3" stroke-miterlimit="10" x1="542.8" y1="32.9" x2="542.8" y2="547.9"/>
			<line fill="none" stroke="#E4F2D3" stroke-miterlimit="10" x1="634.8" y1="87.9" x2="634.8" y2="566.9"/>
			<line fill="none" stroke="#E4F2D3" stroke-miterlimit="10" x1="517.8" y1="18.9" x2="517.8" y2="541.9"/>
			<line fill="none" stroke="#E4F2D3" stroke-miterlimit="10" x1="613.8" y1="75.9" x2="613.8" y2="562.9"/>
			<line fill="none" stroke="#E4F2D3" stroke-miterlimit="10" x1="716.8" y1="136.9" x2="716.8" y2="584.9"/>
			<line fill="none" stroke="#E4F2D3" stroke-miterlimit="10" x1="771.8" y1="169.9" x2="771.8" y2="595.9"/>
			<line fill="none" stroke="#E4F2D3" stroke-miterlimit="10" x1="696.8" y1="124.9" x2="696.8" y2="579.9"/>
			<line fill="none" stroke="#E4F2D3" stroke-miterlimit="10" x1="754.8" y1="159.9" x2="754.8" y2="592.9"/>
			<line fill="none" stroke="#E4F2D3" stroke-miterlimit="10" x1="820.8" y1="199.9" x2="820.8" y2="605.9"/>
			<line fill="none" stroke="#E4F2D3" stroke-miterlimit="10" x1="852.8" y1="217.9" x2="852.8" y2="612.9"/>
			<line fill="none" stroke="#E4F2D3" stroke-miterlimit="10" x1="803.8" y1="189.9" x2="803.8" y2="602.9"/>
			<line fill="none" stroke="#E4F2D3" stroke-miterlimit="10" x1="835.8" y1="207.9" x2="835.8" y2="609.9"/>
			<line fill="none" stroke="#E4F2D3" stroke-miterlimit="10" x1="880.8" y1="234.9" x2="880.8" y2="618.9"/>
			<line fill="none" stroke="#E4F2D3" stroke-miterlimit="10" x1="865.8" y1="225.9" x2="865.8" y2="615.9"/>
		</g>
		<g>
			<line fill="none" stroke="#E4F2D3" stroke-miterlimit="10" x1="879.8" y1="486.8" x2="78.3" y2="210.7"/>
			<line fill="none" stroke="#E4F2D3" stroke-miterlimit="10" x1="879.8" y1="494.8" x2="78.3" y2="225.1"/>
			<line fill="none" stroke="#E4F2D3" stroke-miterlimit="10" x1="879.8" y1="509.9" x2="78.3" y2="252.6"/>
			<line fill="none" stroke="#E4F2D3" stroke-miterlimit="10" x1="879.8" y1="525.9" x2="78.3" y2="281.4"/>
			<line fill="none" stroke="#E4F2D3" stroke-miterlimit="10" x1="879.8" y1="501.9" x2="78.3" y2="238.1"/>
			<line fill="none" stroke="#E4F2D3" stroke-miterlimit="10" x1="879.8" y1="517.9" x2="78.3" y2="267"/>
			<line fill="none" stroke="#E4F2D3" stroke-miterlimit="10" x1="879.8" y1="549.1" x2="78.3" y2="323.3"/>
			<line fill="none" stroke="#E4F2D3" stroke-miterlimit="10" x1="879.8" y1="572.3" x2="78.3" y2="365.1"/>
			<line fill="none" stroke="#E4F2D3" stroke-miterlimit="10" x1="879.8" y1="541.1" x2="78.3" y2="308.8"/>
			<line fill="none" stroke="#E4F2D3" stroke-miterlimit="10" x1="879.8" y1="564.3" x2="78.3" y2="350.7"/>
			<line fill="none" stroke="#E4F2D3" stroke-miterlimit="10" x1="879.8" y1="533.1" x2="78.3" y2="294.4"/>
			<line fill="none" stroke="#E4F2D3" stroke-miterlimit="10" x1="879.8" y1="556.3" x2="78.3" y2="336.3"/>
			<line fill="none" stroke="#E4F2D3" stroke-miterlimit="10" x1="879.8" y1="587.5" x2="78.3" y2="392.6"/>
			<line fill="none" stroke="#E4F2D3" stroke-miterlimit="10" x1="879.8" y1="580.3" x2="78.3" y2="379.6"/>
			<g>
				<line fill="none" stroke="#E4F2D3" stroke-miterlimit="10" x1="879.8" y1="238.2" x2="78.3" y2="-238.2"/>
				<line fill="none" stroke="#E4F2D3" stroke-miterlimit="10" x1="879.8" y1="246.2" x2="78.3" y2="-223.7"/>
				<line fill="none" stroke="#E4F2D3" stroke-miterlimit="10" x1="879.8" y1="261.3" x2="78.3" y2="-196.3"/>
				<line fill="none" stroke="#E4F2D3" stroke-miterlimit="10" x1="879.8" y1="277.3" x2="78.3" y2="-167.4"/>
				<line fill="none" stroke="#E4F2D3" stroke-miterlimit="10" x1="879.8" y1="253.3" x2="78.3" y2="-210.7"/>
				<line fill="none" stroke="#E4F2D3" stroke-miterlimit="10" x1="879.8" y1="269.3" x2="78.3" y2="-181.9"/>
				<line fill="none" stroke="#E4F2D3" stroke-miterlimit="10" x1="879.8" y1="300.5" x2="78.3" y2="-125.6"/>
				<line fill="none" stroke="#E4F2D3" stroke-miterlimit="10" x1="879.8" y1="323.7" x2="78.3" y2="-83.7"/>
				<line fill="none" stroke="#E4F2D3" stroke-miterlimit="10" x1="879.8" y1="292.5" x2="78.3" y2="-140"/>
				<line fill="none" stroke="#E4F2D3" stroke-miterlimit="10" x1="879.8" y1="315.7" x2="78.3" y2="-98.2"/>
				<line fill="none" stroke="#E4F2D3" stroke-miterlimit="10" x1="879.8" y1="354.9" x2="78.3" y2="-27.4"/>
				<line fill="none" stroke="#E4F2D3" stroke-miterlimit="10" x1="879.8" y1="385.2" x2="83" y2="29.5"/>
				<line fill="none" stroke="#E4F2D3" stroke-miterlimit="10" x1="879.8" y1="346.9" x2="78.3" y2="-41.9"/>
				<line fill="none" stroke="#E4F2D3" stroke-miterlimit="10" x1="879.8" y1="378" x2="83" y2="16.5"/>
				<line fill="none" stroke="#E4F2D3" stroke-miterlimit="10" x1="879.8" y1="409.2" x2="83" y2="72.7"/>
				<line fill="none" stroke="#E4F2D3" stroke-miterlimit="10" x1="879.8" y1="432.4" x2="83" y2="114.4"/>
				<line fill="none" stroke="#E4F2D3" stroke-miterlimit="10" x1="879.8" y1="284.5" x2="78.3" y2="-154.5"/>
				<line fill="none" stroke="#E4F2D3" stroke-miterlimit="10" x1="879.8" y1="307.7" x2="78.3" y2="-112.6"/>
				<line fill="none" stroke="#E4F2D3" stroke-miterlimit="10" x1="879.8" y1="338.9" x2="78.3" y2="-56.3"/>
				<line fill="none" stroke="#E4F2D3" stroke-miterlimit="10" x1="879.8" y1="370.1" x2="83" y2="2.2"/>
				<line fill="none" stroke="#E4F2D3" stroke-miterlimit="10" x1="879.8" y1="331.7" x2="78.3" y2="-69.3"/>
				<line fill="none" stroke="#E4F2D3" stroke-miterlimit="10" x1="879.8" y1="362.1" x2="83" y2="-12.2"/>
				<line fill="none" stroke="#E4F2D3" stroke-miterlimit="10" x1="879.8" y1="401.2" x2="83" y2="58.3"/>
				<line fill="none" stroke="#E4F2D3" stroke-miterlimit="10" x1="879.8" y1="424.4" x2="83" y2="100"/>
				<line fill="none" stroke="#E4F2D3" stroke-miterlimit="10" x1="879.8" y1="393.2" x2="83" y2="43.9"/>
				<line fill="none" stroke="#E4F2D3" stroke-miterlimit="10" x1="879.8" y1="416.4" x2="83" y2="85.6"/>
				<line fill="none" stroke="#E4F2D3" stroke-miterlimit="10" x1="879.8" y1="447.6" x2="83" y2="141.8"/>
				<line fill="none" stroke="#E4F2D3" stroke-miterlimit="10" x1="879.8" y1="463.6" x2="83" y2="170.6"/>
				<line fill="none" stroke="#E4F2D3" stroke-miterlimit="10" x1="879.8" y1="439.6" x2="83" y2="127.4"/>
				<line fill="none" stroke="#E4F2D3" stroke-miterlimit="10" x1="879.8" y1="455.6" x2="83" y2="156.2"/>
				<line fill="none" stroke="#E4F2D3" stroke-miterlimit="10" x1="879.8" y1="478.8" x2="83" y2="197.9"/>
				<line fill="none" stroke="#E4F2D3" stroke-miterlimit="10" x1="879.8" y1="470.8" x2="83" y2="183.5"/>
			</g>
		</g>
	</g>
	<g>
		<g>
			<path fill="#222A2E" d="M-47.1,569.3l1.4-1.4c0-0.7,0-0.8,0-1.7c0,0.9,0,1,0,1.7l408.9-407.7l-409-410.2 M-43.7,540.2
				c0-1-1-1-1-2C-44.7,539.2-43.7,539.2-43.7,540.2z M-43.7,500.2c-1-1-2,1-2-1C-45.7,501.2-44.7,499.2-43.7,500.2z M-44.6,421.2
				c-2,0,0-1-1-2C-44.5,420.2-46.6,421.2-44.6,421.2z M-45.4,348.2c0-1,0-2,0-3C-45.4,346.2-45.4,347.2-45.4,348.2z M-43.4,307.2
				c0-2-3,0-2-2C-46.4,307.2-43.4,305.2-43.4,307.2z"/>
			<path fill="#222A2E" d="M361.8,161.8"/>
		</g>
		<g>
			<path fill="#E4F2D3" d="M-46.7,539.3l380.2-379.1L-45.6-220 M-43.7,500.2c-1-1-2,1-2-1C-45.7,501.2-44.7,499.2-43.7,500.2z
				 M-44.6,421.2c-2,0,0-1-1-2C-44.5,420.2-46.6,421.2-44.6,421.2z M-45.4,348.2c0-1,0-2,0-3C-45.4,346.2-45.4,347.2-45.4,348.2z
				 M-43.4,307.2c0-2-3,0-2-2C-46.4,307.2-43.4,305.2-43.4,307.2z"/>
			<path fill="#E4F2D3" d="M332.8,161.8"/>
		</g>
		<g>
			<path fill="#222A2E" d="M-47.6,499.6l340.5-339.5L-46.6-180.4 M-44.6,421.2c-2,0,0-1-1-2C-44.5,420.2-46.6,421.2-44.6,421.2z
				 M-45.4,348.2c0-1,0-2,0-3C-45.4,346.2-45.4,347.2-45.4,348.2z M-43.4,307.2c0-2-3,0-2-2C-46.4,307.2-43.4,305.2-43.4,307.2z"/>
			<path fill="#222A2E" d="M293.8,161.7"/>
		</g>
		<g>
			<path fill="#E4F2D3" d="M-48.3,459.9l300.9-300l-300-300.9 M-44.6,421.2c-2,0,0-1-1-2C-44.5,420.2-46.6,421.2-44.6,421.2z
				 M-45.4,348.2c0-1,0-2,0-3C-45.4,346.2-45.4,347.2-45.4,348.2z M-43.4,307.2c0-2-3,0-2-2C-46.4,307.2-43.4,305.2-43.4,307.2z"/>
			<path fill="#E4F2D3" d="M254.8,161.7"/>
		</g>
		<g>
			<path fill="#222A2E" d="M-47.4,422l2.1-2.1c0-0.2-0.1-0.4-0.3-0.6c0.2,0.2,0.3,0.4,0.3,0.6l260.9-260.1l-262.2-263 M-45.4,348.2
				c0-1,0-2,0-3C-45.4,346.2-45.4,347.2-45.4,348.2z M-43.4,307.2c0-2-3,0-2-2C-46.4,307.2-43.4,305.2-43.4,307.2z"/>
			<path fill="#222A2E" d="M215.8,161.6"/>
		</g>
		<g>
			<path fill="#E4F2D3" d="M-47.5,382.9l224-223.3l-223.3-224 M-45.4,348.2c0-1,0-2,0-3C-45.4,346.2-45.4,347.2-45.4,348.2z
				 M-43.4,307.2c0-2-3,0-2-2C-46.4,307.2-43.4,305.2-43.4,307.2z"/>
			<path fill="#E4F2D3" d="M177.8,161.6"/>
		</g>
		<g>
			<path fill="#222A2E" d="M-46.7,344.8l185.9-185.4L-46.2-26.5 M-43.4,307.2c0-2-3,0-2-2C-46.4,307.2-43.4,305.2-43.4,307.2z"/>
			<path fill="#222A2E" d="M138.8,161.5"/>
		</g>
		<g>
			<path fill="#E4F2D3" d="M-45.4,307.3l1-1c-0.8-0.1-1.6,0.2-1-1c-0.6,1.2,0.3,1,1,1l147.4-147L-45,10.8"/>
			<path fill="#E4F2D3" d="M103.8,161.5"/>
		</g>
		<g>
			<polyline fill="#222A2E" points="-44.5,44.8 69.6,159.2 -44.9,273.3 			"/>
			<path fill="#222A2E" d="M68.8,161.4"/>
		</g>
		<g>
			<polyline fill="#E4F2D3" points="-46.3,77.7 34.9,159.2 -46.5,240.4 			"/>
			<path fill="#E4F2D3" d="M34.8,161.4"/>
		</g>
	</g>
	<circle fill="#FE1E8E" cx="1240.3" cy="355" r="17.5"/>
</g>
<g id="divs" display="none">
</g>
<g id="cards">
</g>
</svg>
