<?xml version="1.0" encoding="utf-8"?>
<!-- Generator: Adobe Illustrator 18.0.0, SVG Export Plug-In . SVG Version: 6.00 Build 0)  -->
<!DOCTYPE svg PUBLIC "-//W3C//DTD SVG 1.1//EN" "http://www.w3.org/Graphics/SVG/1.1/DTD/svg11.dtd">
<svg version="1.1" xmlns="http://www.w3.org/2000/svg" xmlns:xlink="http://www.w3.org/1999/xlink" x="0px" y="0px"
	 viewBox="0 0 480.8 776.9" enable-background="new 0 0 480.8 776.9" xml:space="preserve">
<g id="Layer_2">
</g>
<g id="Layer_1">
	<g>
		
			<linearGradient id="SVGID_1_" gradientUnits="userSpaceOnUse" x1="3722.2708" y1="-9200.8594" x2="3722.2708" y2="-9977.7178" gradientTransform="matrix(-1 0 0 -1 3962.6938 -9200.8594)">
			<stop  offset="0" style="stop-color:#222A2E"/>
			<stop  offset="0.2088" style="stop-color:#552744"/>
			<stop  offset="0.5967" style="stop-color:#AF226C"/>
			<stop  offset="0.8692" style="stop-color:#E81F84"/>
			<stop  offset="1" style="stop-color:#FE1E8E"/>
		</linearGradient>
		<polygon fill="url(#SVGID_1_)" points="480.8,0 240.4,776.9 0,0 		"/>
		<polygon fill="#FE1E8E" points="399.8,1 240.4,516.7 81.1,1 		"/>
		<g>
			<path fill="#E4F2D3" d="M164.5,54.7c-2.2,0-4,1.2-5.3,3.5c-1.3,2.3-2,5.6-2,9.7c0,2.7,0.3,5,0.9,7.1c0.6,2,1.5,3.5,2.6,4.6
				s2.4,1.6,3.9,1.6c1.5,0,2.8-0.3,3.9-0.8v1.8c-1,0.6-2.4,0.9-4.1,0.9c-1.9,0-3.5-0.6-4.9-1.8c-1.4-1.2-2.5-3-3.3-5.2
				c-0.8-2.3-1.1-5-1.1-8.2c0-4.7,0.8-8.4,2.5-11.1c1.7-2.7,4-4,6.8-4c1.8,0,3.4,0.4,4.7,1.2l-0.9,1.7
				C167.3,55.1,166,54.7,164.5,54.7z"/>
			<path fill="#E4F2D3" d="M189.6,68c0,4.9-0.7,8.6-2.2,11.2c-1.5,2.6-3.6,3.9-6.3,3.9c-2.8,0-4.9-1.3-6.3-4
				c-1.4-2.6-2.2-6.4-2.2-11.3c0-5.1,0.7-8.9,2.1-11.3s3.6-3.7,6.4-3.7c2.7,0,4.8,1.3,6.3,3.9C188.8,59.4,189.6,63.1,189.6,68z
				 M174.6,68c0,4.4,0.5,7.7,1.6,9.9s2.7,3.4,4.8,3.4c2.1,0,3.7-1.1,4.8-3.3s1.6-5.5,1.6-10c0-4.4-0.5-7.7-1.6-9.9s-2.7-3.3-4.8-3.3
				c-2.2,0-3.8,1.1-4.9,3.4S174.6,63.7,174.6,68z"/>
			<path fill="#E4F2D3" d="M210.5,82.8H208l-11.1-26.4h-0.2c0.2,1.8,0.2,3.6,0.2,5.3v21.1H195V53.3h2.6l11.1,26.1h0.1
				c-0.1-2.2-0.2-4-0.2-5.5V53.3h1.9V82.8z"/>
			<path fill="#E4F2D3" d="M221.9,82.8h-2V55.2H214v-1.9h13.7v1.9h-5.9V82.8z"/>
			<path fill="#E4F2D3" d="M242.4,82.8l-2.6-10.7h-7.2l-2.6,10.7h-2.1l7.1-29.5h2l7.3,29.5H242.4z M239.4,70.1l-2.6-11
				c-0.3-1.2-0.5-2.4-0.6-3.5c-0.1,1.2-0.3,2.3-0.6,3.5l-2.5,11H239.4z"/>
			<path fill="#E4F2D3" d="M256,54.7c-2.2,0-4,1.2-5.3,3.5c-1.3,2.3-2,5.6-2,9.7c0,2.7,0.3,5,0.9,7.1c0.6,2,1.5,3.5,2.6,4.6
				s2.4,1.6,3.9,1.6c1.5,0,2.8-0.3,3.9-0.8v1.8c-1,0.6-2.4,0.9-4.1,0.9c-1.9,0-3.5-0.6-4.9-1.8c-1.4-1.2-2.5-3-3.3-5.2
				c-0.8-2.3-1.1-5-1.1-8.2c0-4.7,0.8-8.4,2.5-11.1c1.7-2.7,4-4,6.8-4c1.8,0,3.4,0.4,4.7,1.2l-0.9,1.7
				C258.7,55.1,257.4,54.7,256,54.7z"/>
			<path fill="#E4F2D3" d="M269.9,82.8h-2V55.2h-5.9v-1.9h13.7v1.9h-5.9V82.8z"/>
			<path fill="#E4F2D3" d="M296.8,82.8l-7.8-26.8h-0.2c0.1,2.8,0.2,4.6,0.2,5.4v21.5h-1.9V53.3h2.9l6.6,22.5c0.6,2,1,3.7,1.1,5.1
				h0.2c0.1-1,0.6-2.7,1.2-5l6.5-22.6h3v29.5h-2V61.5c0-0.8,0.1-2.7,0.2-5.5h-0.2L299,82.8H296.8z"/>
			<path fill="#E4F2D3" d="M325.9,82.8h-10.7V53.3h10.7v1.9h-8.7v11.2h8.2v1.9h-8.2v12.6h8.7V82.8z"/>
		</g>
	</g>
</g>
<g id="divs" display="none">
</g>
</svg>
