<?xml version="1.0" encoding="utf-8"?>
<!-- Generator: Adobe Illustrator 18.0.0, SVG Export Plug-In . SVG Version: 6.00 Build 0)  -->
<!DOCTYPE svg PUBLIC "-//W3C//DTD SVG 1.1//EN" "http://www.w3.org/Graphics/SVG/1.1/DTD/svg11.dtd">
<svg version="1.1" id="Layer_1" xmlns="http://www.w3.org/2000/svg" xmlns:xlink="http://www.w3.org/1999/xlink" x="0px" y="0px"
	 viewBox="0 0 1509.5 1000" enable-background="new 0 0 1509.5 1000" xml:space="preserve">
<linearGradient id="SVGID_1_" gradientUnits="userSpaceOnUse" x1="622.4762" y1="576.9294" x2="15.0316" y2="576.9294">
	<stop  offset="0" style="stop-color:#222A2E"/>
	<stop  offset="0.1769" style="stop-color:#222D31"/>
	<stop  offset="0.3199" style="stop-color:#233739"/>
	<stop  offset="0.4511" style="stop-color:#244847"/>
	<stop  offset="0.5752" style="stop-color:#26605A"/>
	<stop  offset="0.6944" style="stop-color:#287F74"/>
	<stop  offset="0.8098" style="stop-color:#2BA593"/>
	<stop  offset="0.9201" style="stop-color:#2ED1B7"/>
	<stop  offset="1" style="stop-color:#31F6D5"/>
</linearGradient>
<polygon fill="url(#SVGID_1_)" points="622.5,177.9 622.5,458.2 63.9,976 15,578.8 "/>
<linearGradient id="SVGID_2_" gradientUnits="userSpaceOnUse" x1="352.4117" y1="576.9294" x2="-353.2301" y2="576.9294" gradientTransform="matrix(-0.8609 0 0 1 1191.8739 0)">
	<stop  offset="0" style="stop-color:#222A2E"/>
	<stop  offset="0.1769" style="stop-color:#222D31"/>
	<stop  offset="0.3199" style="stop-color:#233739"/>
	<stop  offset="0.4511" style="stop-color:#244847"/>
	<stop  offset="0.5752" style="stop-color:#26605A"/>
	<stop  offset="0.6944" style="stop-color:#287F74"/>
	<stop  offset="0.8098" style="stop-color:#2BA593"/>
	<stop  offset="0.9201" style="stop-color:#2ED1B7"/>
	<stop  offset="1" style="stop-color:#31F6D5"/>
</linearGradient>
<polygon fill="url(#SVGID_2_)" points="888.5,177.9 888.5,458.2 1447.1,976 1496,578.8 "/>
<path fill="none" stroke="#E4F2D3" stroke-miterlimit="10" d="M761.7,515.9"/>
<path fill="none" stroke="#E4F2D3" stroke-miterlimit="10" d="M761.7,523.9"/>
<path fill="none" stroke="#E4F2D3" stroke-miterlimit="10" d="M761.7,539.1"/>
<path fill="none" stroke="#E4F2D3" stroke-miterlimit="10" d="M761.7,555.1"/>
<path fill="none" stroke="#E4F2D3" stroke-miterlimit="10" d="M761.7,531.1"/>
<path fill="none" stroke="#E4F2D3" stroke-miterlimit="10" d="M761.7,547.1"/>
<path fill="none" stroke="#E4F2D3" stroke-miterlimit="10" d="M761.7,578.3"/>
<path fill="none" stroke="#E4F2D3" stroke-miterlimit="10" d="M761.7,601.4"/>
<path fill="none" stroke="#E4F2D3" stroke-miterlimit="10" d="M761.7,570.3"/>
<path fill="none" stroke="#E4F2D3" stroke-miterlimit="10" d="M761.7,593.5"/>
<path fill="none" stroke="#E4F2D3" stroke-miterlimit="10" d="M761.7,562.3"/>
<path fill="none" stroke="#E4F2D3" stroke-miterlimit="10" d="M761.7,585.5"/>
<path fill="none" stroke="#E4F2D3" stroke-miterlimit="10" d="M761.7,609.4"/>
<g>
	<line fill="none" stroke="#E4F2D3" stroke-miterlimit="10" x1="1460" y1="52" x2="1460" y2="562"/>
	<line fill="none" stroke="#E4F2D3" stroke-miterlimit="10" x1="1422" y1="77" x2="1422" y2="571"/>
	<line fill="none" stroke="#E4F2D3" stroke-miterlimit="10" x1="1347" y1="126" x2="1347" y2="588"/>
	<line fill="none" stroke="#E4F2D3" stroke-miterlimit="10" x1="1280" y1="170" x2="1280" y2="604"/>
	<line fill="none" stroke="#E4F2D3" stroke-miterlimit="10" x1="1386" y1="100" x2="1386" y2="580"/>
	<line fill="none" stroke="#E4F2D3" stroke-miterlimit="10" x1="1315" y1="148" x2="1315" y2="596"/>
	<line fill="none" stroke="#E4F2D3" stroke-miterlimit="10" x1="1192" y1="228" x2="1192" y2="624"/>
	<line fill="none" stroke="#E4F2D3" stroke-miterlimit="10" x1="1115" y1="280" x2="1115" y2="643"/>
	<line fill="none" stroke="#E4F2D3" stroke-miterlimit="10" x1="1222" y1="209" x2="1222" y2="617"/>
	<line fill="none" stroke="#E4F2D3" stroke-miterlimit="10" x1="1141" y1="263" x2="1141" y2="637"/>
	<line fill="none" stroke="#E4F2D3" stroke-miterlimit="10" x1="1021" y1="341" x2="1021" y2="664"/>
	<line fill="none" stroke="#E4F2D3" stroke-miterlimit="10" x1="946" y1="391" x2="946" y2="682"/>
	<line fill="none" stroke="#E4F2D3" stroke-miterlimit="10" x1="1044" y1="326" x2="1044" y2="659"/>
	<line fill="none" stroke="#E4F2D3" stroke-miterlimit="10" x1="963" y1="380" x2="963" y2="678"/>
	<line fill="none" stroke="#E4F2D3" stroke-miterlimit="10" x1="892" y1="427" x2="892" y2="695"/>
	<line fill="none" stroke="#E4F2D3" stroke-miterlimit="10" x1="843" y1="459" x2="843" y2="706"/>
	<line fill="none" stroke="#E4F2D3" stroke-miterlimit="10" x1="1250" y1="189" x2="1250" y2="610"/>
	<line fill="none" stroke="#E4F2D3" stroke-miterlimit="10" x1="1166" y1="245" x2="1166" y2="630"/>
	<line fill="none" stroke="#E4F2D3" stroke-miterlimit="10" x1="1067" y1="311" x2="1067" y2="654"/>
	<line fill="none" stroke="#E4F2D3" stroke-miterlimit="10" x1="983" y1="366" x2="983" y2="673"/>
	<line fill="none" stroke="#E4F2D3" stroke-miterlimit="10" x1="1089" y1="297" x2="1089" y2="648"/>
	<line fill="none" stroke="#E4F2D3" stroke-miterlimit="10" x1="1002" y1="354" x2="1002" y2="669"/>
	<line fill="none" stroke="#E4F2D3" stroke-miterlimit="10" x1="909" y1="415" x2="909" y2="691"/>
	<line fill="none" stroke="#E4F2D3" stroke-miterlimit="10" x1="859" y1="448" x2="859" y2="702"/>
	<line fill="none" stroke="#E4F2D3" stroke-miterlimit="10" x1="927" y1="403" x2="927" y2="686"/>
	<line fill="none" stroke="#E4F2D3" stroke-miterlimit="10" x1="875" y1="438" x2="875" y2="699"/>
	<line fill="none" stroke="#E4F2D3" stroke-miterlimit="10" x1="815" y1="478" x2="815" y2="712"/>
	<line fill="none" stroke="#E4F2D3" stroke-miterlimit="10" x1="786" y1="496" x2="786" y2="719"/>
	<line fill="none" stroke="#E4F2D3" stroke-miterlimit="10" x1="830" y1="468" x2="830" y2="709"/>
	<line fill="none" stroke="#E4F2D3" stroke-miterlimit="10" x1="801" y1="486" x2="801" y2="716"/>
	<line fill="none" stroke="#E4F2D3" stroke-miterlimit="10" x1="761" y1="513" x2="761" y2="725"/>
	<line fill="none" stroke="#E4F2D3" stroke-miterlimit="10" x1="774" y1="504" x2="774" y2="722"/>
	<path fill="none" stroke="#E4F2D3" stroke-miterlimit="10" d="M761.7,632.6"/>
	<path fill="none" stroke="#E4F2D3" stroke-miterlimit="10" d="M761.7,663"/>
	<path fill="none" stroke="#E4F2D3" stroke-miterlimit="10" d="M761.7,624.6"/>
	<path fill="none" stroke="#E4F2D3" stroke-miterlimit="10" d="M761.7,655.8"/>
	<path fill="none" stroke="#E4F2D3" stroke-miterlimit="10" d="M761.7,687"/>
	<path fill="none" stroke="#E4F2D3" stroke-miterlimit="10" d="M761.7,710.2"/>
	<path fill="none" stroke="#E4F2D3" stroke-miterlimit="10" d="M761.7,616.6"/>
	<path fill="none" stroke="#E4F2D3" stroke-miterlimit="10" d="M761.7,647.8"/>
	<path fill="none" stroke="#E4F2D3" stroke-miterlimit="10" d="M761.7,639.8"/>
	<path fill="none" stroke="#E4F2D3" stroke-miterlimit="10" d="M761.7,679"/>
	<path fill="none" stroke="#E4F2D3" stroke-miterlimit="10" d="M761.7,702.2"/>
	<path fill="none" stroke="#E4F2D3" stroke-miterlimit="10" d="M761.7,671"/>
	<path fill="none" stroke="#E4F2D3" stroke-miterlimit="10" d="M761.7,694.2"/>
	<path fill="none" stroke="#E4F2D3" stroke-miterlimit="10" d="M761.7,725.3"/>
	<path fill="none" stroke="#E4F2D3" stroke-miterlimit="10" d="M761.7,717.4"/>
	<path fill="none" stroke="#E4F2D3" stroke-miterlimit="10" d="M761.7,733.3"/>
</g>
<g>
	<line fill="none" stroke="#E4F2D3" stroke-miterlimit="10" x1="25" y1="36" x2="25" y2="546"/>
	<line fill="none" stroke="#E4F2D3" stroke-miterlimit="10" x1="64" y1="61" x2="64" y2="555"/>
	<line fill="none" stroke="#E4F2D3" stroke-miterlimit="10" x1="139" y1="110" x2="139" y2="572"/>
	<line fill="none" stroke="#E4F2D3" stroke-miterlimit="10" x1="206" y1="154" x2="206" y2="588"/>
	<line fill="none" stroke="#E4F2D3" stroke-miterlimit="10" x1="100" y1="84" x2="100" y2="564"/>
	<line fill="none" stroke="#E4F2D3" stroke-miterlimit="10" x1="170" y1="132" x2="170" y2="580"/>
	<line fill="none" stroke="#E4F2D3" stroke-miterlimit="10" x1="294" y1="212" x2="294" y2="608"/>
	<line fill="none" stroke="#E4F2D3" stroke-miterlimit="10" x1="370" y1="264" x2="370" y2="627"/>
	<line fill="none" stroke="#E4F2D3" stroke-miterlimit="10" x1="264" y1="193" x2="264" y2="601"/>
	<line fill="none" stroke="#E4F2D3" stroke-miterlimit="10" x1="345" y1="247" x2="345" y2="621"/>
	<line fill="none" stroke="#E4F2D3" stroke-miterlimit="10" x1="465" y1="325" x2="465" y2="648"/>
	<line fill="none" stroke="#E4F2D3" stroke-miterlimit="10" x1="539" y1="375" x2="539" y2="666"/>
	<line fill="none" stroke="#E4F2D3" stroke-miterlimit="10" x1="442" y1="310" x2="442" y2="643"/>
	<line fill="none" stroke="#E4F2D3" stroke-miterlimit="10" x1="523" y1="364" x2="523" y2="662"/>
	<line fill="none" stroke="#E4F2D3" stroke-miterlimit="10" x1="593" y1="411" x2="593" y2="679"/>
	<line fill="none" stroke="#E4F2D3" stroke-miterlimit="10" x1="643" y1="443" x2="643" y2="690"/>
	<line fill="none" stroke="#E4F2D3" stroke-miterlimit="10" x1="236" y1="173" x2="236" y2="594"/>
	<line fill="none" stroke="#E4F2D3" stroke-miterlimit="10" x1="319" y1="229" x2="319" y2="614"/>
	<line fill="none" stroke="#E4F2D3" stroke-miterlimit="10" x1="419" y1="295" x2="419" y2="638"/>
	<line fill="none" stroke="#E4F2D3" stroke-miterlimit="10" x1="502" y1="350" x2="502" y2="657"/>
	<line fill="none" stroke="#E4F2D3" stroke-miterlimit="10" x1="397" y1="281" x2="397" y2="632"/>
	<line fill="none" stroke="#E4F2D3" stroke-miterlimit="10" x1="483" y1="338" x2="483" y2="653"/>
	<line fill="none" stroke="#E4F2D3" stroke-miterlimit="10" x1="576" y1="399" x2="576" y2="675"/>
	<line fill="none" stroke="#E4F2D3" stroke-miterlimit="10" x1="627" y1="432" x2="627" y2="686"/>
	<line fill="none" stroke="#E4F2D3" stroke-miterlimit="10" x1="559" y1="387" x2="559" y2="670"/>
	<line fill="none" stroke="#E4F2D3" stroke-miterlimit="10" x1="611" y1="422" x2="611" y2="683"/>
	<line fill="none" stroke="#E4F2D3" stroke-miterlimit="10" x1="671" y1="462" x2="671" y2="696"/>
	<line fill="none" stroke="#E4F2D3" stroke-miterlimit="10" x1="700" y1="480" x2="700" y2="703"/>
	<line fill="none" stroke="#E4F2D3" stroke-miterlimit="10" x1="656" y1="452" x2="656" y2="693"/>
	<line fill="none" stroke="#E4F2D3" stroke-miterlimit="10" x1="685" y1="470" x2="685" y2="700"/>
	<line fill="none" stroke="#E4F2D3" stroke-miterlimit="10" x1="724" y1="497" x2="724" y2="709"/>
	<line fill="none" stroke="#E4F2D3" stroke-miterlimit="10" x1="711" y1="488" x2="711" y2="706"/>
	<path fill="none" stroke="#E4F2D3" stroke-miterlimit="10" d="M723.4,616.6"/>
	<path fill="none" stroke="#E4F2D3" stroke-miterlimit="10" d="M723.4,647"/>
	<path fill="none" stroke="#E4F2D3" stroke-miterlimit="10" d="M723.4,608.6"/>
	<path fill="none" stroke="#E4F2D3" stroke-miterlimit="10" d="M723.4,639.8"/>
	<path fill="none" stroke="#E4F2D3" stroke-miterlimit="10" d="M723.4,671"/>
	<path fill="none" stroke="#E4F2D3" stroke-miterlimit="10" d="M723.4,694.2"/>
	<path fill="none" stroke="#E4F2D3" stroke-miterlimit="10" d="M723.4,600.6"/>
	<path fill="none" stroke="#E4F2D3" stroke-miterlimit="10" d="M723.4,631.8"/>
	<path fill="none" stroke="#E4F2D3" stroke-miterlimit="10" d="M723.4,623.8"/>
	<path fill="none" stroke="#E4F2D3" stroke-miterlimit="10" d="M723.4,663"/>
	<path fill="none" stroke="#E4F2D3" stroke-miterlimit="10" d="M723.4,686.2"/>
	<path fill="none" stroke="#E4F2D3" stroke-miterlimit="10" d="M723.4,655"/>
	<path fill="none" stroke="#E4F2D3" stroke-miterlimit="10" d="M723.4,678.2"/>
	<path fill="none" stroke="#E4F2D3" stroke-miterlimit="10" d="M723.4,709.3"/>
	<path fill="none" stroke="#E4F2D3" stroke-miterlimit="10" d="M723.4,701.4"/>
	<path fill="none" stroke="#E4F2D3" stroke-miterlimit="10" d="M723.4,717.3"/>
</g>
<linearGradient id="SVGID_3_" gradientUnits="userSpaceOnUse" x1="9692.5713" y1="2657.1411" x2="9692.5713" y2="2013.1953" gradientTransform="matrix(-1 0 0 -1 10434.9883 2855.1411)">
	<stop  offset="0" style="stop-color:#222A2E"/>
	<stop  offset="0.2088" style="stop-color:#552744"/>
	<stop  offset="0.5967" style="stop-color:#AF226C"/>
	<stop  offset="0.8692" style="stop-color:#E81F84"/>
	<stop  offset="1" style="stop-color:#FE1E8E"/>
</linearGradient>
<polygon fill="url(#SVGID_3_)" points="982.8,198 742.4,841.9 502,198 "/>
<polygon fill="#FE1E8E" points="901.8,200 742.4,627.5 583.1,200 "/>
<g>
	<path fill="#E4F2D3" d="M666.5,252.6c-2.2,0-4,1.2-5.3,3.5c-1.3,2.3-2,5.6-2,9.7c0,2.7,0.3,5.1,0.9,7.1s1.5,3.5,2.6,4.6
		s2.4,1.6,3.9,1.6c1.5,0,2.8-0.3,3.9-0.8v1.8c-1,0.6-2.4,0.9-4.1,0.9c-1.9,0-3.5-0.6-4.9-1.8c-1.4-1.2-2.5-3-3.3-5.2s-1.1-5-1.1-8.1
		c0-4.7,0.8-8.4,2.5-11.1c1.7-2.7,4-4,6.8-4c1.8,0,3.4,0.4,4.7,1.2l-0.9,1.7C669.3,253,668,252.6,666.5,252.6z"/>
	<path fill="#E4F2D3" d="M691.5,265.8c0,4.9-0.7,8.6-2.2,11.2c-1.5,2.6-3.6,3.9-6.3,3.9c-2.8,0-4.9-1.3-6.3-4
		c-1.4-2.6-2.2-6.4-2.2-11.3c0-5.1,0.7-8.9,2.1-11.3c1.4-2.5,3.6-3.7,6.4-3.7c2.7,0,4.8,1.3,6.3,3.9
		C690.8,257.3,691.5,261,691.5,265.8z M676.6,265.8c0,4.4,0.5,7.7,1.6,9.9c1.1,2.2,2.7,3.4,4.8,3.4c2.1,0,3.7-1.1,4.8-3.3
		c1.1-2.2,1.6-5.5,1.6-10c0-4.4-0.5-7.7-1.6-9.9c-1.1-2.2-2.7-3.3-4.8-3.3c-2.2,0-3.8,1.1-4.9,3.4
		C677.2,258.3,676.6,261.5,676.6,265.8z"/>
	<path fill="#E4F2D3" d="M712.5,280.6H710l-11.1-26.4h-0.2c0.2,1.8,0.2,3.6,0.2,5.3v21.1H697v-29.5h2.6l11.1,26.1h0.1
		c-0.1-2.2-0.2-4-0.2-5.5v-20.6h1.9V280.6z"/>
	<path fill="#E4F2D3" d="M723.9,280.6h-2v-27.6H716v-1.9h13.7v1.9h-5.9V280.6z"/>
	<path fill="#E4F2D3" d="M744.4,280.6l-2.6-10.7h-7.2l-2.6,10.7h-2.1l7.1-29.5h2l7.3,29.5H744.4z M741.4,267.9l-2.6-11
		c-0.3-1.2-0.5-2.4-0.6-3.5c-0.1,1.2-0.3,2.3-0.6,3.5l-2.5,11H741.4z"/>
	<path fill="#E4F2D3" d="M758,252.6c-2.2,0-4,1.2-5.3,3.5c-1.3,2.3-2,5.6-2,9.7c0,2.7,0.3,5.1,0.9,7.1s1.5,3.5,2.6,4.6
		s2.4,1.6,3.9,1.6c1.5,0,2.8-0.3,3.9-0.8v1.8c-1,0.6-2.4,0.9-4.1,0.9c-1.9,0-3.5-0.6-4.9-1.8c-1.4-1.2-2.5-3-3.3-5.2s-1.1-5-1.1-8.1
		c0-4.7,0.8-8.4,2.5-11.1c1.7-2.7,4-4,6.8-4c1.8,0,3.4,0.4,4.7,1.2l-0.9,1.7C760.7,253,759.4,252.6,758,252.6z"/>
	<path fill="#E4F2D3" d="M771.9,280.6h-2v-27.6h-5.9v-1.9h13.7v1.9h-5.9V280.6z"/>
	<path fill="#E4F2D3" d="M798.8,280.6l-7.8-26.8h-0.2c0.1,2.8,0.2,4.6,0.2,5.4v21.5h-1.9v-29.5h2.9l6.6,22.5c0.6,2,1,3.7,1.1,5.1
		h0.2c0.1-1,0.6-2.7,1.2-5l6.5-22.6h3v29.5h-2v-21.3c0-0.8,0.1-2.7,0.2-5.5h-0.2l-7.8,26.8H798.8z"/>
	<path fill="#E4F2D3" d="M827.9,280.6h-10.7v-29.5h10.7v1.9h-8.7v11.2h8.2v1.9h-8.2v12.6h8.7V280.6z"/>
</g>
</svg>
