<?xml version="1.0" encoding="utf-8"?>
<!-- Generator: Adobe Illustrator 18.0.0, SVG Export Plug-In . SVG Version: 6.00 Build 0)  -->
<!DOCTYPE svg PUBLIC "-//W3C//DTD SVG 1.1//EN" "http://www.w3.org/Graphics/SVG/1.1/DTD/svg11.dtd">
<svg version="1.1" xmlns="http://www.w3.org/2000/svg" xmlns:xlink="http://www.w3.org/1999/xlink" x="0px" y="0px"
	 viewBox="0 0 332.8 561.6" enable-background="new 0 0 332.8 561.6" xml:space="preserve">
<g id="Layer_2">
</g>
<g id="Layer_1">
	<g>
		<g>
			<g>
				<polygon fill="#2E3A41" points="39.1,269.1 178,28.6 316.8,269.1 				"/>
				<polygon fill="#31F6D5" points="316.8,268.1 178,508.6 39.1,268.1 				"/>
			</g>
			<linearGradient id="SVGID_1_" gradientUnits="userSpaceOnUse" x1="51.5183" y1="269.8374" x2="189.9817" y2="30.0117">
				<stop  offset="0" style="stop-color:#222A2E"/>
				<stop  offset="0.1769" style="stop-color:#222D31"/>
				<stop  offset="0.3199" style="stop-color:#233739"/>
				<stop  offset="0.4511" style="stop-color:#244847"/>
				<stop  offset="0.5752" style="stop-color:#26605A"/>
				<stop  offset="0.6944" style="stop-color:#287F74"/>
				<stop  offset="0.8098" style="stop-color:#2BA593"/>
				<stop  offset="0.9201" style="stop-color:#2ED1B7"/>
				<stop  offset="1" style="stop-color:#31F6D5"/>
			</linearGradient>
			<polygon fill="url(#SVGID_1_)" points="138,0 138,240.1 0,240.1 			"/>
			<linearGradient id="SVGID_2_" gradientUnits="userSpaceOnUse" x1="262.6184" y1="321.0934" x2="262.6184" y2="561.5846">
				<stop  offset="0" style="stop-color:#222A2E"/>
				<stop  offset="0.1769" style="stop-color:#222D31"/>
				<stop  offset="0.3199" style="stop-color:#233739"/>
				<stop  offset="0.4511" style="stop-color:#244847"/>
				<stop  offset="0.5752" style="stop-color:#26605A"/>
				<stop  offset="0.6944" style="stop-color:#287F74"/>
				<stop  offset="0.8098" style="stop-color:#2BA593"/>
				<stop  offset="0.9201" style="stop-color:#2ED1B7"/>
				<stop  offset="1" style="stop-color:#31F6D5"/>
			</linearGradient>
			<polygon fill="url(#SVGID_2_)" points="194,561.6 332.8,321.1 192.4,321.1 			"/>
			<circle fill="#FE1E8E" cx="233" cy="193.1" r="15.5"/>
		</g>
		<g>
			<path fill="#222A2E" d="M116.7,296.9c0,10-3.1,15-9.4,15h-5.2v-29.5h5.4c3,0,5.3,1.2,6.9,3.7
				C115.9,288.5,116.7,292.1,116.7,296.9z M114.6,297c0-4.2-0.6-7.3-1.8-9.5c-1.2-2.2-3-3.3-5.4-3.3H104v25.8h3.1
				c2.6,0,4.4-1.1,5.6-3.3C114,304.5,114.6,301.2,114.6,297z"/>
			<path fill="#222A2E" d="M138.1,297.1c0,4.9-0.7,8.6-2.2,11.2c-1.5,2.6-3.6,3.9-6.3,3.9c-2.8,0-4.9-1.3-6.3-4
				c-1.4-2.6-2.2-6.4-2.2-11.3c0-5.1,0.7-8.9,2.1-11.3s3.6-3.7,6.4-3.7c2.7,0,4.8,1.3,6.3,3.9C137.4,288.5,138.1,292.3,138.1,297.1z
				 M123.2,297.1c0,4.4,0.5,7.7,1.6,9.9s2.7,3.4,4.8,3.4c2.1,0,3.7-1.1,4.8-3.3s1.6-5.5,1.6-10c0-4.4-0.5-7.7-1.6-9.9
				s-2.7-3.3-4.8-3.3c-2.2,0-3.8,1.1-4.9,3.4S123.2,292.8,123.2,297.1z"/>
			<path fill="#222A2E" d="M166.2,282.4h2l-6.3,29.5h-2.4l-4.5-22c-0.1-0.4-0.3-2-0.7-4.8l-0.3,1.9l-0.5,2.9l-4.4,22.1h-2.3
				l-6.3-29.5h2.1l4.2,20.3c0.6,3.3,1.1,5.6,1.2,6.9c0.3-2.1,0.7-4.4,1.1-6.8l4.1-20.4h2.2l4.1,20.3c0.4,2.2,0.7,4,0.9,5.4l0.2,1.5
				c0.4-2.8,0.8-5.1,1.1-6.9L166.2,282.4z"/>
			<path fill="#222A2E" d="M187.2,311.9h-2.5l-11.1-26.4h-0.2c0.2,1.8,0.2,3.6,0.2,5.3v21.1h-1.9v-29.5h2.6l11.1,26.1h0.1
				c-0.1-2.2-0.2-4-0.2-5.5v-20.6h1.9V311.9z"/>
			<path fill="#222A2E" d="M193.6,311.9v-29.5h2V310h8.3v1.9H193.6z"/>
			<path fill="#222A2E" d="M224,297.1c0,4.9-0.7,8.6-2.2,11.2c-1.5,2.6-3.6,3.9-6.3,3.9c-2.8,0-4.9-1.3-6.3-4
				c-1.4-2.6-2.2-6.4-2.2-11.3c0-5.1,0.7-8.9,2.1-11.3s3.6-3.7,6.4-3.7c2.7,0,4.8,1.3,6.3,3.9C223.2,288.5,224,292.3,224,297.1z
				 M209,297.1c0,4.4,0.5,7.7,1.6,9.9s2.7,3.4,4.8,3.4c2.1,0,3.7-1.1,4.8-3.3s1.6-5.5,1.6-10c0-4.4-0.5-7.7-1.6-9.9
				s-2.7-3.3-4.8-3.3c-2.2,0-3.8,1.1-4.9,3.4S209,292.8,209,297.1z"/>
			<path fill="#222A2E" d="M240.6,311.9l-2.6-10.7h-7.2l-2.6,10.7h-2.1l7.1-29.5h2l7.3,29.5H240.6z M237.5,299.2l-2.6-11
				c-0.3-1.2-0.5-2.4-0.6-3.5c-0.1,1.2-0.3,2.3-0.6,3.5l-2.5,11H237.5z"/>
			<path fill="#222A2E" d="M260.4,296.9c0,10-3.1,15-9.4,15h-5.2v-29.5h5.4c3,0,5.3,1.2,6.9,3.7
				C259.6,288.5,260.4,292.1,260.4,296.9z M258.3,297c0-4.2-0.6-7.3-1.8-9.5c-1.2-2.2-3-3.3-5.4-3.3h-3.3v25.8h3.1
				c2.6,0,4.4-1.1,5.6-3.3C257.7,304.5,258.3,301.2,258.3,297z"/>
		</g>
		<g>
			<path fill="#E4F2D3" d="M234.8,375.1c-2.2,0-4,1.2-5.3,3.5s-2,5.6-2,9.7c0,2.7,0.3,5.1,0.9,7.1c0.6,2,1.5,3.5,2.6,4.6
				s2.4,1.6,3.9,1.6c1.5,0,2.8-0.3,3.9-0.8v1.8c-1,0.6-2.4,0.9-4.1,0.9c-1.9,0-3.5-0.6-4.9-1.8c-1.4-1.2-2.5-3-3.3-5.2
				c-0.8-2.3-1.1-5-1.1-8.1c0-4.7,0.8-8.4,2.5-11.1c1.7-2.7,4-4,6.8-4c1.8,0,3.4,0.4,4.7,1.2l-0.9,1.7
				C237.5,375.5,236.2,375.1,234.8,375.1z"/>
			<path fill="#E4F2D3" d="M254.6,373.7h2l-7,29.5h-2.2l-6.9-29.5h2.1l4.8,20.7c0.4,1.6,0.6,2.8,0.7,3.5c0.1,0.7,0.2,1.7,0.4,2.8
				c0.1-0.8,0.2-1.5,0.3-2.3c0.1-0.8,0.2-1.4,0.4-1.9C249.3,396,251.1,388.4,254.6,373.7z"/>
		</g>
	</g>
</g>
<g id="divs" display="none">
</g>
</svg>
