<?xml version="1.0" encoding="utf-8"?>
<!-- Generator: Adobe Illustrator 18.0.0, SVG Export Plug-In . SVG Version: 6.00 Build 0)  -->
<!DOCTYPE svg PUBLIC "-//W3C//DTD SVG 1.1//EN" "http://www.w3.org/Graphics/SVG/1.1/DTD/svg11.dtd">
<svg version="1.1" xmlns="http://www.w3.org/2000/svg" xmlns:xlink="http://www.w3.org/1999/xlink" x="0px" y="0px"
	 viewBox="0 0 727.1 857.4" enable-background="new 0 0 727.1 857.4" xml:space="preserve">
<g id="Layer_2">
</g>
<g id="Layer_1">
	<linearGradient id="SVGID_1_" gradientUnits="userSpaceOnUse" x1="0" y1="428.6927" x2="727.0729" y2="428.6927">
		<stop  offset="0" style="stop-color:#222A2E"/>
		<stop  offset="0.1352" style="stop-color:#363E3F"/>
		<stop  offset="0.4129" style="stop-color:#68736A"/>
		<stop  offset="0.8053" style="stop-color:#B9C6AF"/>
		<stop  offset="1" style="stop-color:#E4F2D3"/>
	</linearGradient>
	<path fill="url(#SVGID_1_)" d="M726.1,472.9v3.3l-12-7.9v-4.4h-1v3.8l-11-7.2v-4.5h-1v3.9l-14-9.2v-4.7h-1v4l-13-8.5v-3.5h-1v2.9
		l-14-9.2v-3.7h-1v3l-12-7.9v-4.1h-1v3.5l-15-9.8v-4.6h-1v4l-15-9.8v-4.1h-1v3.5l-16-10.5v-4h-1v3.3l-16-10.5v-4.8h-1v4.2l-17-11.2
		v-5h-1v4.4l-18-11.8v-4.6h-1v3.9l-16-10.5v-4.4h-1v3.8l-19-12.5v-5.3h-1v4.6l-18-11.8v-4.8h-1v4.2l-18-11.8v-5.4h-1v4.7l-22-14.4
		v-5.3h-1v4.6l-22-14.4v-5.2h-1v4.5l-21-13.8v-4.7h-1v4.1l-25-16.4v-4.7h-1v4l-25-16.4v-4.6h-1v4l-24-15.7v-6.2h-1v5.6l-25-16.4
		v-6.2h-1v5.5l-29-19v-5.5h-1v4.8l-27-17.7v-7.1h-1v6.4l-29-19v-6.4h-1v5.8l-34-22.3v-5.5h-1v4.8l-31-20.3v-6.5h-1v5.8l-38-24.9
		v-6.9h-1v6.2l-35-23v-6.2h-1v5.6l-37-24.3v-6.3h-1v5.7L0.8,0L0,0.8l27.1,17.9v13L0.8,14.4L0,15.3l27.1,17.7v11.6L0.8,27.4L0,28.3
		l27.1,17.4v13L0.8,41.9L0,42.7l27.1,17.2v13L0.8,56.3L0,57.1l27.1,17v13L0.7,70.7L0,71.6l27.1,16.7v11.6L0.7,83.7L0,84.6L27.1,101
		v13L0.7,98.1L0,99l27.1,16.2v13L0.7,112.6L0,113.4l27.1,16V141L0.7,125.6L0,126.4l27,15.8v13L0.7,140L0,140.9l27,15.5v13l-26.3-15
		L0,155.3l27,15.3v13L0.7,168.8L0,169.7l27,15.1v11.6L0.7,181.8L0,182.7l27,14.8v13.1L0.7,196.3L0,197.1l27,14.6v13.1L0.7,210.7
		L0,211.6l27,14.3v11.6L5,225.9l-0.7,0.9l22.8,11.9v13.1L5,240.3l-0.7,0.9l22.8,11.7V266L5,254.7l-0.7,0.9l22.8,11.5v11.7L5,267.6
		l-0.7,0.9l22.8,11.3v13.1L5,282l-0.6,0.9L27.1,294v13.1L5,296.4l-0.6,0.9l22.8,10.9v13.1L5,310.8l-0.6,0.9l22.8,10.7v11.7L5,323.8
		l-0.6,0.9l22.7,10.5v13.1L5,338.2l-0.6,0.9l22.7,10.3v13.1l-22.1-9.9l-0.6,0.9l22.7,10.1v11.7l-22.1-9.8l-0.6,0.9l22.7,9.9v13.1
		l-22.1-9.6l-0.6,0.9l22.7,9.7v13.1l-22.1-9.4l-0.6,0.9l22.7,9.5v13.1l-22.1-9.2l-0.6,0.9l22.7,9.3v11.7l-22.1-9l-0.6,0.9l22.7,9.1
		v13.1L4.9,436L4.4,437l22.7,8.9V459L0.7,448.8l-0.6,0.9l27,10.3v13.1l-26.4-10l-0.6,0.9l27,10.1V486l-26.4-9.8l-0.6,0.9l27,9.9
		v13.1l-26.4-9.5l-0.5,0.9l27,9.6v13.1l-26.4-9.3L0.1,506l27,9.4v13.1l-26.4-9l-0.5,0.9l27,9.2v11.7l-26.4-8.8l-0.5,0.9l27,8.9v13.1
		l-26.4-8.6l-0.5,1l27,8.7v13.1l-26.4-8.4l-0.5,1l26.9,8.4v11.7l-26.4-8.1l-0.5,1l26.9,8.2v13.2l-26.4-7.9l-0.5,1l26.9,8v13.2
		l-26.4-7.7l-0.5,1l26.9,7.7v13.2l-26.5-7.4l-0.5,1l26.9,7.5v11.7l-26.5-7.2l-0.5,1l26.9,7.3v13.2l-26.5-7l-0.5,1l26.9,7v13.2
		l-26.5-6.7l-0.5,1l26.9,6.8V679l-22.2-5.5l-0.5,1l22.7,5.6v13.2l-22.2-5.3l-0.4,1l22.7,5.3v-0.4h1v0.6l37,8.7v-0.3h1v0.5l35,8.2
		v0.3h1v-0.1l70,16.4v-0.3h1v0.5l34,8v-0.5h1.6l137.4,33v0h1v0.2l25,5.8v-0.1h1v0.3l47,11v-0.3h1v0.5l64,15v-0.5h1.5l37.5,9.6v-0.6
		h1l16,4.6v-0.6h1.1l35.9,9.3v-0.3h1v0.5l16,3.7v-0.2h1v0.5l16,3.7v-0.2h1v0.4l73,17.1v-0.5h1.5l38.8,9.5l-0.3-0.3v-0.2h1v-384
		H726.1z M725.8,477.2l0.3-0.5v7.5l-12-7.8v-6.9L725.8,477.2z M542.1,804.1v-7.6l18,4.5v7.5L542.1,804.1z M560.1,809.5v8.4l-18-4.2
		v-8.6L560.1,809.5z M486.1,790.5v-8.1l18,4.5v7.9L486.1,790.5z M504.1,795.9v8.9l-18-4.2v-9.1L504.1,795.9z M444.1,780.3v-8.4
		l22,5.5v8.2L444.1,780.3z M466.1,786.6v9.3l-22-5.1v-9.5L466.1,786.6z M645.1,821.2v-7.7l12,3.1v7.6L645.1,821.2z M657.1,825.3v6.7
		l-12-2.9v-6.8L657.1,825.3z M485.1,476.2v9l-18-9.2v-9.2L485.1,476.2z M467.1,465.8v-8.1l18,9.5v8L467.1,465.8z M485.1,486.4v9
		l-18-9v-9.2L485.1,486.4z M485.1,496.5v8l-18-8.9v-8.1L485.1,496.5z M485.1,505.6v9l-18-8.7v-9.2L485.1,505.6z M485.1,515.7v9
		l-18-8.6V507L485.1,515.7z M485.1,525.9v9l-18-8.4v-9.2L485.1,525.9z M485.1,536v8l-18-8.2v-8.2L485.1,536z M485.1,545.1v9l-18-8.1
		v-9.2L485.1,545.1z M485.1,555.2v9l-18-7.9v-9.2L485.1,555.2z M485.1,565.4v8l-18-7.8v-8.2L485.1,565.4z M485.1,574.5v9l-18-7.6
		v-9.2L485.1,574.5z M485.1,584.6v9l-18-7.5V577L485.1,584.6z M485.1,594.7v9.1l-18-7.3v-9.2L485.1,594.7z M485.1,604.9v8l-18-7.2
		v-8.2L485.1,604.9z M485.1,614v9.1l-18-7v-9.2L485.1,614z M485.1,624.1v9.1l-18-6.8v-9.2L485.1,624.1z M485.1,634.2v9.1l-18-6.7
		v-9.2L485.1,634.2z M485.1,644.4v8.1l-18-6.5v-8.2L485.1,644.4z M486.1,644.7l18,6.7v7.9l-18-6.5V644.7z M486.1,643.7v-9.1l18,6.8
		v8.9L486.1,643.7z M486.1,633.6v-9.1l18,7v8.9L486.1,633.6z M486.1,623.4v-9l18,7.2v8.9L486.1,623.4z M486.1,613.3v-8l18,7.3v7.9
		L486.1,613.3z M486.1,604.2v-9l18,7.5v8.9L486.1,604.2z M486.1,594.1v-9l18,7.6v8.9L486.1,594.1z M486.1,584v-9l18,7.8v8.9
		L486.1,584z M486.1,573.8v-8l18,7.9v7.9L486.1,573.8z M486.1,564.7v-9l18,8.1v8.9L486.1,564.7z M486.1,554.6v-9l18,8.2v8.9
		L486.1,554.6z M486.1,544.5v-8l18,8.4v7.9L486.1,544.5z M486.1,535.4v-9l18,8.6v8.9L486.1,535.4z M486.1,525.2v-9l18,8.7v8.9
		L486.1,525.2z M486.1,515.1v-9l18,8.9v8.8L486.1,515.1z M486.1,505v-8l18,9v7.8L486.1,505z M486.1,495.9v-9l18,9.2v8.8L486.1,495.9
		z M486.1,485.7v-9l18,9.3v8.8L486.1,485.7z M486.1,475.6v-8l18,9.5v7.8L486.1,475.6z M486.1,466.5v-9l18,9.6v8.8L486.1,466.5z
		 M485.1,466l-18-9.5v-9.2l18,9.6V466z M466.1,456l-22-11.6V435l22,11.8V456z M466.1,457.1v8.1l-22-11.4v-8.3L466.1,457.1z
		 M466.1,466.4v9.2l-22-11.2V455L466.1,466.4z M466.1,476.7v9.2l-22-11v-9.4L466.1,476.7z M466.1,487v8.2l-22-10.8V476L466.1,487z
		 M466.1,496.2v9.2l-22-10.6v-9.4L466.1,496.2z M466.1,506.5v9.2l-22-10.5v-9.4L466.1,506.5z M466.1,516.8v9.2l-22-10.3v-9.4
		L466.1,516.8z M466.1,527.1v8.2l-22-10.1v-8.3L466.1,527.1z M466.1,536.4v9.2l-22-9.9v-9.4L466.1,536.4z M466.1,546.7v9.2l-22-9.7
		v-9.4L466.1,546.7z M466.1,557v8.2l-22-9.5v-8.4L466.1,557z M466.1,566.3v9.2l-22-9.3v-9.4L466.1,566.3z M466.1,576.6v9.2l-22-9.1
		v-9.4L466.1,576.6z M466.1,586.9v9.2l-22-8.9v-9.4L466.1,586.9z M466.1,597.2v8.2l-22-8.8v-8.4L466.1,597.2z M466.1,606.4v9.2
		l-22-8.6v-9.4L466.1,606.4z M466.1,616.7v9.2l-22-8.4v-9.4L466.1,616.7z M466.1,627v9.2l-22-8.2v-9.4L466.1,627z M466.1,637.3v8.2
		l-22-8v-8.4L466.1,637.3z M466.1,646.6v9.2l-22-7.8v-9.4L466.1,646.6z M467.1,646.9l18,6.5v9.1l-18-6.4V646.9z M486.1,653.9l18,6.5
		v8.9l-18-6.4V653.9z M505.1,660.8l19,6.9v8.7l-19-6.7V660.8z M505.1,659.7v-7.9l19,7.1v7.7L505.1,659.7z M505.1,650.7v-8.9l19,7.2
		v8.7L505.1,650.7z M505.1,640.8v-8.9l19,7.4v8.7L505.1,640.8z M505.1,630.8v-8.9l19,7.6v8.7L505.1,630.8z M505.1,620.9V613l19,7.7
		v7.7L505.1,620.9z M505.1,611.9V603l19,7.9v8.7L505.1,611.9z M505.1,602v-8.9l19,8.1v8.7L505.1,602z M505.1,592v-8.9l19,8.2v8.7
		L505.1,592z M505.1,582v-7.9l19,8.4v7.7L505.1,582z M505.1,573.1v-8.9l19,8.5v8.7L505.1,573.1z M505.1,563.1v-8.9l19,8.7v8.7
		L505.1,563.1z M505.1,553.2v-7.9l19,8.9v7.7L505.1,553.2z M505.1,544.2v-8.8l19,9v8.7L505.1,544.2z M505.1,534.3v-8.8l19,9.2v8.7
		L505.1,534.3z M505.1,524.3v-8.8l19,9.4v8.7L505.1,524.3z M505.1,514.4v-7.8l19,9.5v7.7L505.1,514.4z M505.1,505.4v-8.8l19,9.7v8.7
		L505.1,505.4z M505.1,495.4v-8.8l19,9.9v8.7L505.1,495.4z M505.1,485.5v-7.8l19,10v7.7L505.1,485.5z M505.1,476.5v-8.8l19,10.2v8.7
		L505.1,476.5z M505.1,466.6v-8.8l19,10.3v8.6L505.1,466.6z M504.1,466l-18-9.6v-9l18,9.8V466z M485.1,455.9l-18-9.6v-9.2l18,9.8
		V455.9z M466.1,445.7l-22-11.8v-9.4l22,12V445.7z M443.1,433.4l-22-11.8V412l22,12V433.4z M443.1,434.5v9.4l-22-11.6v-9.6
		L443.1,434.5z M443.1,445v8.3l-22-11.4v-8.5L443.1,445z M443.1,454.5v9.4l-22-11.2V443L443.1,454.5z M443.1,465v9.4l-22-11v-9.6
		L443.1,465z M443.1,475.5v8.3l-22-10.8v-8.5L443.1,475.5z M443.1,484.9v9.4l-22-10.6v-9.6L443.1,484.9z M443.1,495.4v9.4l-22-10.5
		v-9.6L443.1,495.4z M443.1,505.9v9.4l-22-10.3v-9.6L443.1,505.9z M443.1,516.4v8.4l-22-10.1v-8.5L443.1,516.4z M443.1,525.9v9.4
		l-22-9.9v-9.6L443.1,525.9z M443.1,536.4v9.4l-22-9.7v-9.6L443.1,536.4z M443.1,546.9v8.4l-22-9.5v-8.5L443.1,546.9z M443.1,556.3
		v9.4l-22-9.3v-9.6L443.1,556.3z M443.1,566.8v9.4l-22-9.1v-9.6L443.1,566.8z M443.1,577.3v9.4l-22-8.9v-9.6L443.1,577.3z
		 M443.1,587.8v8.4l-22-8.8v-8.6L443.1,587.8z M443.1,597.3v9.4l-22-8.6v-9.6L443.1,597.3z M443.1,607.8v9.4l-22-8.4v-9.6
		L443.1,607.8z M443.1,618.3v9.4l-22-8.2v-9.6L443.1,618.3z M443.1,628.8v8.4l-22-8v-8.6L443.1,628.8z M443.1,638.2v9.4l-22-7.8
		v-9.6L443.1,638.2z M443.1,648.7v9.4l-22-7.6v-9.6L443.1,648.7z M444.1,649.1l22,7.8v9.2l-22-7.6V649.1z M467.1,657.2l18,6.4v9.1
		l-18-6.2V657.2z M486.1,664l18,6.4v8.9l-18-6.2V664z M505.1,670.7l19,6.7v8.7l-19-6.6V670.7z M525.1,677.8l16,5.7v8.6l-16-5.5
		V677.8z M525.1,676.7V668l16,5.8v8.6L525.1,676.7z M525.1,667v-7.7l16,5.9v7.6L525.1,667z M525.1,658.2v-8.7l16,6.1v8.6
		L525.1,658.2z M525.1,648.4v-8.7l16,6.2v8.6L525.1,648.4z M525.1,638.6v-8.7l16,6.4v8.6L525.1,638.6z M525.1,628.8v-7.7l16,6.5v7.6
		L525.1,628.8z M525.1,620v-8.7l16,6.6v8.6L525.1,620z M525.1,610.3v-8.7l16,6.8v8.6L525.1,610.3z M525.1,600.5v-8.7l16,6.9v8.5
		L525.1,600.5z M525.1,590.7V583l16,7v7.6L525.1,590.7z M525.1,581.9v-8.7l16,7.2v8.5L525.1,581.9z M525.1,572.1v-8.7l16,7.3v8.5
		L525.1,572.1z M525.1,562.3v-7.7l16,7.5v7.6L525.1,562.3z M525.1,553.5v-8.7l16,7.6v8.5L525.1,553.5z M525.1,543.8v-8.7l16,7.7v8.5
		L525.1,543.8z M525.1,534v-8.7l16,7.9v8.5L525.1,534z M525.1,524.2v-7.7l16,8v7.6L525.1,524.2z M525.1,515.4v-8.7l16,8.2v8.5
		L525.1,515.4z M525.1,505.6V497l16,8.3v8.5L525.1,505.6z M525.1,495.9v-7.7l16,8.4v7.5L525.1,495.9z M525.1,487.1v-8.6l16,8.6v8.5
		L525.1,487.1z M525.1,477.3v-8.6l16,8.7v8.5L525.1,477.3z M525.1,467.5v-7.7l16,8.8v7.5L525.1,467.5z M524.1,467l-19-10.3v-7.8
		l19,10.5V467z M504.1,456.1l-18-9.8v-8l18,9.9V456.1z M485.1,445.7l-18-9.8v-8.1l18,9.9V445.7z M466.1,435.4l-22-12v-8.3l22,12.2
		V435.4z M443.1,422.9l-22-12v-8.5l22,12.2V422.9z M420.1,410.3l-21-11.4v-8.7l21,11.6V410.3z M420.1,411.5v9.6l-21-11.2V400
		L420.1,411.5z M420.1,422.2v9.6l-21-11.1v-9.8L420.1,422.2z M420.1,432.9v8.5l-21-10.9v-8.7L420.1,432.9z M420.1,442.5v9.6
		l-21-10.7v-9.8L420.1,442.5z M420.1,453.2v9.6l-21-10.5v-9.8L420.1,453.2z M420.1,463.9v8.5l-21-10.4v-8.7L420.1,463.9z
		 M420.1,473.6v9.6l-21-10.2v-9.8L420.1,473.6z M420.1,484.3v9.6l-21-10v-9.8L420.1,484.3z M420.1,495v9.6l-21-9.8V485L420.1,495z
		 M420.1,505.7v8.5l-21-9.6v-8.7L420.1,505.7z M420.1,515.3v9.6l-21-9.4v-9.8L420.1,515.3z M420.1,526v9.6l-21-9.3v-9.8L420.1,526z
		 M420.1,536.7v8.5l-21-9.1v-8.7L420.1,536.7z M420.1,546.4v9.6l-21-8.9v-9.8L420.1,546.4z M420.1,557.1v9.6l-21-8.7v-9.8
		L420.1,557.1z M420.1,567.8v9.6l-21-8.5v-9.8L420.1,567.8z M420.1,578.5v8.6l-21-8.4V570L420.1,578.5z M420.1,588.1v9.6l-21-8.2
		v-9.8L420.1,588.1z M420.1,598.8v9.6l-21-8v-9.8L420.1,598.8z M420.1,609.5v9.6l-21-7.8v-9.8L420.1,609.5z M420.1,620.2v8.6
		l-21-7.6v-8.7L420.1,620.2z M420.1,629.9v9.6l-21-7.4v-9.8L420.1,629.9z M420.1,640.6v9.6l-21-7.3v-9.8L420.1,640.6z M420.1,651.3
		v9.7l-21-7.1V644L420.1,651.3z M421.1,651.6l22,7.6v9.4l-22-7.4V651.6z M444.1,659.6l22,7.6v9.2l-22-7.4V659.6z M467.1,667.5
		l18,6.2v9.1l-18-6.1V667.5z M486.1,674.1l18,6.2v8.9l-18-6.1V674.1z M505.1,680.7l19,6.6v8.7l-19-6.4V680.7z M525.1,687.6l16,5.5
		v8.6l-16-5.4V687.6z M542.1,693.5l18,6.2v8.4l-18-6.1V693.5z M542.1,692.4v-8.6l18,6.4v8.4L542.1,692.4z M542.1,682.8v-8.6l18,6.5
		v8.4L542.1,682.8z M542.1,673.1v-7.6l18,6.7v7.5L542.1,673.1z M542.1,664.5v-8.6l18,6.8v8.4L542.1,664.5z M542.1,654.8v-8.6l18,7
		v8.4L542.1,654.8z M542.1,645.2v-8.6l18,7.2v8.4L542.1,645.2z M542.1,635.6V628l18,7.3v7.4L542.1,635.6z M542.1,626.9v-8.5l18,7.5
		v8.4L542.1,626.9z M542.1,617.3v-8.5l18,7.6v8.4L542.1,617.3z M542.1,607.7v-8.5l18,7.8v8.4L542.1,607.7z M542.1,598.1v-7.6l18,7.9
		v7.4L542.1,598.1z M542.1,589.4v-8.5l18,8.1v8.4L542.1,589.4z M542.1,579.8v-8.5l18,8.2v8.4L542.1,579.8z M542.1,570.1v-7.6l18,8.4
		v7.4L542.1,570.1z M542.1,561.5v-8.5l18,8.6v8.4L542.1,561.5z M542.1,551.8v-8.5l18,8.7v8.4L542.1,551.8z M542.1,542.2v-8.5l18,8.9
		v8.4L542.1,542.2z M542.1,532.6V525l18,9v7.4L542.1,532.6z M542.1,523.9v-8.5l18,9.2v8.3L542.1,523.9z M542.1,514.3v-8.5l18,9.3
		v8.3L542.1,514.3z M542.1,504.7v-7.5l18,9.5v7.4L542.1,504.7z M542.1,496v-8.5l18,9.6v8.3L542.1,496z M542.1,486.4v-8.5l18,9.8v8.3
		L542.1,486.4z M542.1,476.7v-7.5l18,9.9v7.4L542.1,476.7z M542.1,468.1v-8.5l18,10.1v8.3L542.1,468.1z M541.1,467.5l-16-8.8v-8.6
		l16,9V467.5z M524.1,458.1l-19-10.5v-8.8l19,10.7V458.1z M504.1,447.1l-18-9.9v-9l18,10.1V447.1z M485.1,436.6l-18-9.9v-9.1
		l18,10.1V436.6z M466.1,426.1l-22-12.2v-9.3l22,12.3V426.1z M443.1,413.4l-22-12.2v-9.6l22,12.3V413.4z M420.1,400.7l-21-11.6v-9.7
		l21,11.8V400.7z M398.1,388.5l-25-13.8v-10l25,14V388.5z M398.1,389.7v8.7l-25-13.6v-8.9L398.1,389.7z M398.1,399.5v9.8l-25-13.4
		v-10L398.1,399.5z M398.1,410.4v9.8l-25-13.2v-10L398.1,410.4z M398.1,421.3v8.7l-25-13v-8.9L398.1,421.3z M398.1,431.1v9.8
		l-25-12.7v-10L398.1,431.1z M398.1,442v9.8l-25-12.5v-10L398.1,442z M398.1,452.9v8.7l-25-12.3v-8.9L398.1,452.9z M398.1,462.7v9.8
		l-25-12.1v-10L398.1,462.7z M398.1,473.6v9.8l-25-11.9v-10L398.1,473.6z M398.1,484.5v9.8l-25-11.7v-10L398.1,484.5z M398.1,495.4
		v8.7l-25-11.5v-8.9L398.1,495.4z M398.1,505.2v9.8l-25-11.2v-10L398.1,505.2z M398.1,516.1v9.8l-25-11v-10L398.1,516.1z M398.1,527
		v8.7l-25-10.8V516L398.1,527z M398.1,536.8v9.8l-25-10.6v-10L398.1,536.8z M398.1,547.7v9.8l-25-10.4v-10L398.1,547.7z
		 M398.1,558.6v9.8l-25-10.1v-10L398.1,558.6z M398.1,569.5v8.7l-25-9.9v-8.9L398.1,569.5z M398.1,579.4v9.8l-25-9.7v-10
		L398.1,579.4z M398.1,590.3v9.8l-25-9.5v-10.1L398.1,590.3z M398.1,601.2v9.8l-25-9.3v-10.1L398.1,601.2z M398.1,612.1v8.7l-25-9.1
		v-8.9L398.1,612.1z M398.1,621.9v9.8l-25-8.9v-10.1L398.1,621.9z M398.1,632.8v9.8l-25-8.6v-10.1L398.1,632.8z M398.1,643.7v9.8
		l-25-8.4V635L398.1,643.7z M398.1,654.6v8.8l-25-8.2v-9L398.1,654.6z M399.1,654.9l21,7.1v8.6l-21-6.9V654.9z M421.1,662.3l22,7.4
		v8.4l-22-7.2V662.3z M444.1,670.1l22,7.4v8.2l-22-7.2V670.1z M467.1,677.8l18,6.1v8.1l-18-5.9V677.8z M486.1,684.2l18,6.1v7.9
		l-18-5.9V684.2z M505.1,690.6l19,6.4v7.8l-19-6.2V690.6z M525.1,697.3l16,5.4v7.6l-16-5.3V697.3z M542.1,703.1l18,6.1v7.5l-18-5.9
		V703.1z M561.1,709.5l17,5.7v7.3l-17-5.6V709.5z M561.1,708.4V700l17,5.9v8.2L561.1,708.4z M561.1,699v-8.4l17,6v8.2L561.1,699z
		 M561.1,689.5v-8.4l17,6.2v8.2L561.1,689.5z M561.1,680v-7.4l17,6.3v7.3L561.1,680z M561.1,671.5v-8.4l17,6.5v8.2L561.1,671.5z
		 M561.1,662.1v-8.4l17,6.6v8.2L561.1,662.1z M561.1,652.6v-8.4l17,6.8v8.2L561.1,652.6z M561.1,643.2v-7.4l17,6.9v7.3L561.1,643.2z
		 M561.1,634.6v-8.4l17,7.1v8.2L561.1,634.6z M561.1,625.2v-8.4l17,7.2v8.2L561.1,625.2z M561.1,615.7v-8.4l17,7.4v8.2L561.1,615.7z
		 M561.1,606.3v-7.4l17,7.5v7.3L561.1,606.3z M561.1,597.8v-8.4l17,7.6v8.2L561.1,597.8z M561.1,588.3v-8.4l17,7.8v8.2L561.1,588.3z
		 M561.1,578.8v-7.4l17,7.9v7.3L561.1,578.8z M561.1,570.3V562l17,8.1v8.2L561.1,570.3z M561.1,560.9v-8.3l17,8.2v8.2L561.1,560.9z
		 M561.1,551.4v-8.3l17,8.4v8.2L561.1,551.4z M561.1,542v-7.4l17,8.5v7.3L561.1,542z M561.1,533.4v-8.3l17,8.7v8.2L561.1,533.4z
		 M561.1,524v-8.3l17,8.8v8.2L561.1,524z M561.1,514.5v-7.4l17,9v7.2L561.1,514.5z M561.1,506v-8.3l17,9.1v8.2L561.1,506z
		 M561.1,496.6v-8.3l17,9.3v8.2L561.1,496.6z M561.1,487.1v-7.4l17,9.4v7.2L561.1,487.1z M561.1,478.6v-8.3l17,9.5v8.2L561.1,478.6z
		 M561.1,469.1v-8.3l17,9.7v8.2L561.1,469.1z M560.1,468.6l-18-10.1V450l18,10.3V468.6z M541.1,457.9l-16-9v-8.6l16,9.1V457.9z
		 M524.1,448.4l-19-10.7v-8.8l19,10.8V448.4z M504.1,437.1l-18-10.1v-9l18,10.3V437.1z M485.1,426.5l-18-10.1v-9.1l18,10.3V426.5z
		 M466.1,415.8l-22-12.3v-9.3l22,12.5V415.8z M443.1,402.9l-22-12.3V381l22,12.5V402.9z M420.1,390l-21-11.8v-9.7l21,12V390z
		 M398.1,377.6l-25-14v-10l25,14.3V377.6z M372.1,363.1l-25-14v-10.2l25,14.3V363.1z M372.1,364.2v10l-25-13.8v-10.2L372.1,364.2z
		 M372.1,375.3v8.9l-25-13.6v-9.1L372.1,375.3z M372.1,385.3v10l-25-13.4v-10.2L372.1,385.3z M372.1,396.5v10l-25-13.2v-10.2
		L372.1,396.5z M372.1,407.6v8.9l-25-13v-9.1L372.1,407.6z M372.1,417.6v10l-25-12.7v-10.2L372.1,417.6z M372.1,428.8v10l-25-12.5
		V416L372.1,428.8z M372.1,439.9v8.9l-25-12.3v-9.1L372.1,439.9z M372.1,449.9v10l-25-12.1v-10.2L372.1,449.9z M372.1,461v10
		l-25-11.9v-10.2L372.1,461z M372.1,472.2v10l-25-11.7v-10.2L372.1,472.2z M372.1,483.3v8.9l-25-11.5v-9.1L372.1,483.3z
		 M372.1,493.3v10l-25-11.2v-10.3L372.1,493.3z M372.1,504.5v10l-25-11v-10.3L372.1,504.5z M372.1,515.6v8.9l-25-10.8v-9.1
		L372.1,515.6z M372.1,525.6v10l-25-10.6v-10.3L372.1,525.6z M372.1,536.7v10l-25-10.4v-10.3L372.1,536.7z M372.1,547.9v10.1
		l-25-10.1v-10.3L372.1,547.9z M372.1,559v8.9l-25-10v-9.1L372.1,559z M372.1,569v10.1l-25-9.7v-10.3L372.1,569z M372.1,580.1v10.1
		l-25-9.5v-10.3L372.1,580.1z M372.1,591.3v10.1l-25-9.3v-10.3L372.1,591.3z M372.1,602.4v9l-25-9.1v-9.2L372.1,602.4z M372.1,612.4
		v10.1l-25-8.9v-10.3L372.1,612.4z M372.1,623.6v10.1l-25-8.6v-10.3L372.1,623.6z M372.1,634.7v10.1l-25-8.4V626L372.1,634.7z
		 M372.1,645.8v9l-25-8.2v-9.2L372.1,645.8z M372.1,655.8v10.1l-25-8v-10.3L372.1,655.8z M373.1,656.2l25,8.2v9.9l-25-8V656.2z
		 M399.1,664.7l21,6.9v9.7l-21-6.7V664.7z M421.1,672l22,7.2v9.5l-22-7V672z M444.1,679.5l22,7.2v9.2l-22-7V679.5z M467.1,687.1
		l18,5.9v9.1l-18-5.8V687.1z M486.1,693.3l18,5.9v8.9l-18-5.8V693.3z M505.1,699.6l19,6.2v8.7l-19-6.1V699.6z M525.1,706.1l16,5.3
		v8.6l-16-5.1V706.1z M542.1,711.7l18,5.9v8.4l-18-5.8V711.7z M561.1,718l17,5.6v8.3l-17-5.4V718z M579.1,723.9l16,5.3v8.1l-16-5.1
		V723.9z M579.1,722.9v-7.3l16,5.4v7.2L579.1,722.9z M579.1,714.5v-8.2l16,5.5v8.1L579.1,714.5z M579.1,705.2v-8.2l16,5.7v8.1
		L579.1,705.2z M579.1,695.9v-8.2l16,5.8v8.1L579.1,695.9z M579.1,686.6v-7.3l16,5.9v7.2L579.1,686.6z M579.1,678.2V670l16,6.1v8.1
		L579.1,678.2z M579.1,668.9v-8.2l16,6.2v8.1L579.1,668.9z M579.1,659.6v-8.2l16,6.4v8.1L579.1,659.6z M579.1,650.3V643l16,6.5v7.2
		L579.1,650.3z M579.1,642v-8.2l16,6.6v8.1L579.1,642z M579.1,632.7v-8.2l16,6.8v8.1L579.1,632.7z M579.1,623.4v-8.2l16,6.9v8.1
		L579.1,623.4z M579.1,614.1v-7.3l16,7v7.1L579.1,614.1z M579.1,605.7v-8.2l16,7.2v8.1L579.1,605.7z M579.1,596.4v-8.2l16,7.3v8.1
		L579.1,596.4z M579.1,587.1v-7.3l16,7.5v7.1L579.1,587.1z M579.1,578.7v-8.2l16,7.6v8.1L579.1,578.7z M579.1,569.4v-8.2l16,7.7v8
		L579.1,569.4z M579.1,560.1v-8.2l16,7.9v8L579.1,560.1z M579.1,550.8v-7.3l16,8v7.1L579.1,550.8z M579.1,542.5v-8.2l16,8.2v8
		L579.1,542.5z M579.1,533.2V525l16,8.3v8L579.1,533.2z M579.1,523.9v-7.2l16,8.4v7.1L579.1,523.9z M579.1,515.5v-8.2l16,8.6v8
		L579.1,515.5z M579.1,506.2V498l16,8.7v8L579.1,506.2z M579.1,496.9v-7.2l16,8.8v7.1L579.1,496.9z M579.1,488.5v-8.2l16,9v8
		L579.1,488.5z M579.1,479.2v-8.1l16,9.1v8L579.1,479.2z M579.1,469.9v-8.1l16,9.3v8L579.1,469.9z M578.1,469.4l-17-9.7v-8.3l17,9.8
		V469.4z M560.1,459.1l-18-10.3v-8.5l18,10.4V459.1z M541.1,448.3l-16-9.1v-8.6l16,9.3V448.3z M524.1,438.6l-19-10.8v-8.8l19,11
		V438.6z M504.1,427.2l-18-10.3v-9l18,10.4V427.2z M485.1,416.3l-18-10.3v-9.1l18,10.4V416.3z M466.1,405.5l-22-12.5v-9.3l22,12.7
		V405.5z M443.1,392.4l-22-12.5v-9.5l22,12.7V392.4z M420.1,379.3l-21-12v-9.7l21,12.2V379.3z M398.1,366.7l-25-14.3v-10l25,14.5
		V366.7z M372.1,351.9l-25-14.3v-10.2l25,14.5V351.9z M346.1,337.1l-24-13.7V313l24,13.9V337.1z M346.1,338.2v10.2l-24-13.5v-10.4
		L346.1,338.2z M346.1,349.6v10.2l-24-13.3v-10.4L346.1,349.6z M346.1,361v9.1l-24-13.1v-9.3L346.1,361z M346.1,371.2v10.2l-24-12.9
		v-10.4L346.1,371.2z M346.1,382.6v10.2l-24-12.6v-10.4L346.1,382.6z M346.1,393.9v9.1l-24-12.4v-9.3L346.1,393.9z M346.1,404.1
		v10.2l-24-12.2v-10.5L346.1,404.1z M346.1,415.5v10.2l-24-12v-10.5L346.1,415.5z M346.1,426.9v9.1l-24-11.8v-9.3L346.1,426.9z
		 M346.1,437.1v10.3l-24-11.6v-10.5L346.1,437.1z M346.1,448.5v10.3l-24-11.4v-10.5L346.1,448.5z M346.1,459.8v10.3l-24-11.2v-10.5
		L346.1,459.8z M346.1,471.2v9.1l-24-11V460L346.1,471.2z M346.1,481.4v10.3l-24-10.8v-10.5L346.1,481.4z M346.1,492.8V503l-24-10.6
		V482L346.1,492.8z M346.1,504.1v9.1l-24-10.4v-9.3L346.1,504.1z M346.1,514.4v10.3l-24-10.2V504L346.1,514.4z M346.1,525.7V536
		l-24-10v-10.5L346.1,525.7z M346.1,537.1v10.3l-24-9.7v-10.5L346.1,537.1z M346.1,548.4v9.1l-24-9.6v-9.3L346.1,548.4z
		 M346.1,558.7V569l-24-9.3v-10.5L346.1,558.7z M346.1,570v10.3l-24-9.1v-10.5L346.1,570z M346.1,581.4v10.3l-24-8.9v-10.5
		L346.1,581.4z M346.1,592.8v9.2l-24-8.7v-9.4L346.1,592.8z M346.1,603v10.3l-24-8.5v-10.5L346.1,603z M346.1,614.3v10.3l-24-8.3
		v-10.5L346.1,614.3z M346.1,625.7V636l-24-8.1v-10.5L346.1,625.7z M346.1,637.1v9.2l-24-7.9V629L346.1,637.1z M346.1,647.3v10.3
		l-24-7.7v-10.5L346.1,647.3z M346.1,658.7V669l-24-7.5V651L346.1,658.7z M347.1,659l25,8v10.1l-25-7.8V659z M373.1,667.3l25,8v9.9
		l-25-7.8V667.3z M399.1,675.6l21,6.7v9.7l-21-6.5V675.6z M421.1,682.6l22,7v9.5l-22-6.8V682.6z M444.1,690l22,7v9.2l-22-6.8V690z
		 M467.1,697.4l18,5.8v9.1l-18-5.6V697.4z M486.1,703.4l18,5.8v8.9l-18-5.6V703.4z M505.1,709.5l19,6.1v8.7l-19-5.9V709.5z
		 M525.1,715.9l16,5.1v8.6l-16-5V715.9z M542.1,721.4l18,5.8v8.4l-18-5.6V721.4z M561.1,727.4l17,5.4v8.3l-17-5.3V727.4z
		 M579.1,733.2l16,5.1v8.1l-16-5V733.2z M596.1,738.6l16,5.1v8l-16-5V738.6z M596.1,737.6v-8.1l16,5.3v8L596.1,737.6z M596.1,728.4
		v-7.2l16,5.4v7L596.1,728.4z M596.1,720.2v-8.1l16,5.5v7.9L596.1,720.2z M596.1,711.1V703l16,5.7v7.9L596.1,711.1z M596.1,701.9
		v-8.1l16,5.8v7.9L596.1,701.9z M596.1,692.8v-7.2l16,5.9v7L596.1,692.8z M596.1,684.5v-8.1l16,6.1v7.9L596.1,684.5z M596.1,675.4
		v-8.1l16,6.2v7.9L596.1,675.4z M596.1,666.2v-8.1l16,6.4v7.9L596.1,666.2z M596.1,657.1v-7.2l16,6.5v7L596.1,657.1z M596.1,648.9
		v-8.1l16,6.6v7.9L596.1,648.9z M596.1,639.7v-8.1l16,6.8v7.9L596.1,639.7z M596.1,630.6v-8.1l16,6.9v7.9L596.1,630.6z M596.1,621.4
		v-7.1l16,7v7L596.1,621.4z M596.1,613.2v-8.1l16,7.2v7.9L596.1,613.2z M596.1,604v-8l16,7.3v7.9L596.1,604z M596.1,594.9v-7.1
		l16,7.5v7L596.1,594.9z M596.1,586.6v-8l16,7.6v7.9L596.1,586.6z M596.1,577.5v-8l16,7.7v7.9L596.1,577.5z M596.1,568.4v-8l16,7.9
		v7.9L596.1,568.4z M596.1,559.2v-7.1l16,8v7L596.1,559.2z M596.1,551v-8l16,8.2v7.9L596.1,551z M596.1,541.8v-8l16,8.3v7.9
		L596.1,541.8z M596.1,532.7v-7.1l16,8.4v7L596.1,532.7z M596.1,524.4v-8l16,8.6v7.9L596.1,524.4z M596.1,515.3v-8l16,8.7v7.9
		L596.1,515.3z M596.1,506.1v-7.1l16,8.8v7L596.1,506.1z M596.1,497.9v-8l16,9v7.9L596.1,497.9z M596.1,488.8v-8l16,9.1v7.9
		L596.1,488.8z M596.1,479.6v-8l16,9.3v7.9L596.1,479.6z M596.1,470.5v-7.1l16,9.4v6.9L596.1,470.5z M595.1,469.9l-16-9.3v-7.2
		l16,9.4V469.9z M578.1,460l-17-9.8v-7.4l17,10V460z M560.1,449.6l-18-10.4v-7.5l18,10.6V449.6z M541.1,438.6l-16-9.3v-7.6l16,9.4
		V438.6z M524.1,428.8l-19-11V410l19,11.2V428.8z M504.1,417.2l-18-10.4v-8l18,10.6V417.2z M485.1,406.2l-18-10.4v-8.1l18,10.6
		V406.2z M466.1,395.2l-22-12.7v-8.3l22,12.9V395.2z M443.1,381.9l-22-12.7v-8.5l22,12.9V381.9z M420.1,368.6l-21-12.2v-8.6l21,12.3
		V368.6z M398.1,355.8l-25-14.5v-8.9l25,14.7V355.8z M372.1,340.8l-25-14.5v-9.1l25,14.7V340.8z M346.1,325.7l-24-13.9v-9.3l24,14.1
		V325.7z M321.1,311.3l-25-14.5v-9.5l25,14.7V311.3z M321.1,312.4v10.4l-25-14.3v-10.7L321.1,312.4z M321.1,324v10.4l-25-14v-10.7
		L321.1,324z M321.1,335.6V346l-25-13.8v-10.7L321.1,335.6z M321.1,347.2v9.3l-25-13.6v-9.5L321.1,347.2z M321.1,357.6V368l-25-13.4
		V344L321.1,357.6z M321.1,369.2v10.5l-25-13.2v-10.7L321.1,369.2z M321.1,380.8v9.3l-25-13v-9.5L321.1,380.8z M321.1,391.2v10.5
		l-25-12.7v-10.7L321.1,391.2z M321.1,402.8v10.5l-25-12.5V390L321.1,402.8z M321.1,414.3v9.3l-25-12.3v-9.5L321.1,414.3z
		 M321.1,424.8v10.5l-25-12.1v-10.7L321.1,424.8z M321.1,436.4v10.5l-25-11.9v-10.7L321.1,436.4z M321.1,447.9v10.5l-25-11.7v-10.7
		L321.1,447.9z M321.1,459.5v9.3l-25-11.5v-9.5L321.1,459.5z M321.1,469.9v10.5l-25-11.2v-10.7L321.1,469.9z M321.1,481.5V492
		l-25-11v-10.7L321.1,481.5z M321.1,493.1v9.3l-25-10.8v-9.5L321.1,493.1z M321.1,503.5V514l-25-10.6v-10.7L321.1,503.5z
		 M321.1,515.1v10.5l-25-10.4v-10.7L321.1,515.1z M321.1,526.7v10.5l-25-10.1v-10.7L321.1,526.7z M321.1,538.3v9.3l-25-10v-9.5
		L321.1,538.3z M321.1,548.7v10.5l-25-9.7v-10.7L321.1,548.7z M321.1,560.3v10.5l-25-9.5v-10.7L321.1,560.3z M321.1,571.9v10.5
		l-25-9.3v-10.7L321.1,571.9z M321.1,583.5v9.4l-25-9.1v-9.6L321.1,583.5z M321.1,593.9v10.5l-25-8.9v-10.7L321.1,593.9z
		 M321.1,605.5V616l-25-8.6v-10.7L321.1,605.5z M321.1,617.1v10.5l-25-8.4v-10.8L321.1,617.1z M321.1,628.6v9.4l-25-8.2v-9.6
		L321.1,628.6z M321.1,639.1v10.5l-25-8v-10.8L321.1,639.1z M321.1,650.7v10.5l-25-7.8v-10.8L321.1,650.7z M321.1,662.2v9.4l-25-7.6
		v-9.6L321.1,662.2z M322.1,662.5l24,7.5v9.2l-24-7.3V662.5z M347.1,670.3l25,7.8v9l-25-7.6V670.3z M373.1,678.4l25,7.8v8.8l-25-7.6
		V678.4z M399.1,686.5l21,6.5v8.6l-21-6.4V686.5z M421.1,693.3l22,6.8v8.4l-22-6.7V693.3z M444.1,700.5l22,6.8v8.2l-22-6.7V700.5z
		 M467.1,707.7l18,5.6v8.1l-18-5.5V707.7z M486.1,713.6l18,5.6v7.9l-18-5.5V713.6z M505.1,719.5l19,5.9v7.8l-19-5.8V719.5z
		 M525.1,725.7l16,5v7.6l-16-4.8V725.7z M542.1,731l18,5.6v7.5l-18-5.5V731z M561.1,736.9l17,5.3v7.3l-17-5.2V736.9z M579.1,742.5
		l16,5v7.2l-16-4.8V742.5z M596.1,747.8l16,5v7.1l-16-4.8V747.8z M613.1,753.1l15,4.7v6.9l-15-4.5V753.1z M613.1,752v-7.9l15,4.8
		v7.8L613.1,752z M613.1,743v-7.9l15,4.9v7.8L613.1,743z M613.1,734v-7l15,5.1v6.9L613.1,734z M613.1,725.9V718l15,5.2v7.8
		L613.1,725.9z M613.1,716.9V709l15,5.3v7.8L613.1,716.9z M613.1,707.9V700l15,5.5v7.8L613.1,707.9z M613.1,698.9v-7l15,5.6v6.9
		L613.1,698.9z M613.1,690.8v-7.9l15,5.7v7.8L613.1,690.8z M613.1,681.8v-7.9l15,5.8v7.8L613.1,681.8z M613.1,672.9v-7.9l15,6v7.8
		L613.1,672.9z M613.1,663.9v-7l15,6.1v6.9L613.1,663.9z M613.1,655.8v-7.9l15,6.2v7.8L613.1,655.8z M613.1,646.8v-7.9l15,6.4v7.8
		L613.1,646.8z M613.1,637.8v-7.9l15,6.5v7.8L613.1,637.8z M613.1,628.8v-7l15,6.6v6.9L613.1,628.8z M613.1,620.7v-7.9l15,6.7v7.8
		L613.1,620.7z M613.1,611.7v-7.9l15,6.9v7.8L613.1,611.7z M613.1,602.7v-7l15,7v6.9L613.1,602.7z M613.1,594.6v-7.9l15,7.1v7.8
		L613.1,594.6z M613.1,585.6v-7.9l15,7.3v7.8L613.1,585.6z M613.1,576.6v-7.9l15,7.4v7.8L613.1,576.6z M613.1,567.6v-7l15,7.5v6.9
		L613.1,567.6z M613.1,559.5v-7.9l15,7.6v7.7L613.1,559.5z M613.1,550.5v-7.9l15,7.8v7.7L613.1,550.5z M613.1,541.5v-7l15,7.9v6.8
		L613.1,541.5z M613.1,533.4v-7.9l15,8v7.7L613.1,533.4z M613.1,524.4v-7.9l15,8.2v7.7L613.1,524.4z M613.1,515.4v-7l15,8.3v6.8
		L613.1,515.4z M613.1,507.3v-7.9l15,8.4v7.7L613.1,507.3z M613.1,498.3v-7.8l15,8.6v7.7L613.1,498.3z M613.1,489.3v-7.8l15,8.7v7.7
		L613.1,489.3z M613.1,480.3v-6.9l15,8.8v6.8L613.1,480.3z M613.1,472.2v-7.8l15,8.9v7.7L613.1,472.2z M612.1,471.6l-16-9.4v-8
		l16,9.5V471.6z M595.1,461.6l-16-9.4v-8.1l16,9.5V461.6z M578.1,451.7l-17-10v-8.3l17,10.1V451.7z M560.1,441.1l-18-10.6v-8.5
		l18,10.7V441.1z M541.1,430l-16-9.4v-8.6l16,9.5V430z M524.1,420l-19-11.2V400l19,11.3V420z M504.1,408.2l-18-10.6v-9l18,10.7
		V408.2z M485.1,397.1l-18-10.6v-9.1l18,10.7V397.1z M466.1,385.9l-22-12.9v-9.3l22,13.1V385.9z M443.1,372.4l-22-12.9V350l22,13.1
		V372.4z M420.1,358.9l-21-12.3v-9.7l21,12.5V358.9z M398.1,346l-25-14.7v-10l25,14.9V346z M372.1,330.8l-25-14.7v-10.2l25,14.9
		V330.8z M346.1,315.5l-24-14.1V291l24,14.3V315.5z M321.1,300.8l-25-14.7v-10.6l25,14.9V300.8z M295.1,285.6l-29-17v-10.9l29,17.3
		V285.6z M295.1,286.7v9.5l-29-16.8v-9.7L295.1,286.7z M295.1,297.4V308l-29-16.5v-10.9L295.1,297.4z M295.1,309.2v10.7l-29-16.3
		v-10.9L295.1,309.2z M295.1,321v10.7l-29-16v-10.9L295.1,321z M295.1,332.8v9.5l-29-15.8v-9.7L295.1,332.8z M295.1,343.4v10.7
		l-29-15.5v-10.9L295.1,343.4z M295.1,355.2v10.7l-29-15.3v-10.9L295.1,355.2z M295.1,367.1v9.5l-29-15v-9.7L295.1,367.1z
		 M295.1,377.7v10.7l-29-14.8v-10.9L295.1,377.7z M295.1,389.5v10.7l-29-14.5v-11L295.1,389.5z M295.1,401.3v9.5l-29-14.3v-9.7
		L295.1,401.3z M295.1,412v10.7l-29-14v-11L295.1,412z M295.1,423.8v10.7l-29-13.8v-11L295.1,423.8z M295.1,435.6v10.7l-29-13.5v-11
		L295.1,435.6z M295.1,447.4v9.5l-29-13.3v-9.8L295.1,447.4z M295.1,458v10.7l-29-13v-11L295.1,458z M295.1,469.8v10.7l-29-12.8v-11
		L295.1,469.8z M295.1,481.7v9.5l-29-12.5v-9.8L295.1,481.7z M295.1,492.3V503l-29-12.3v-11L295.1,492.3z M295.1,504.1v10.7l-29-12
		v-11L295.1,504.1z M295.1,515.9v10.7l-29-11.8v-11L295.1,515.9z M295.1,527.7v9.6l-29-11.5V516L295.1,527.7z M295.1,538.4v10.7
		l-29-11.3v-11L295.1,538.4z M295.1,550.2v10.7l-29-11v-11L295.1,550.2z M295.1,562v10.7l-29-10.8v-11L295.1,562z M295.1,573.8v9.6
		l-29-10.5V563L295.1,573.8z M295.1,584.4v10.8l-29-10.3v-11L295.1,584.4z M295.1,596.3V607l-29-10v-11L295.1,596.3z M295.1,608.1
		v10.8l-29-9.8v-11L295.1,608.1z M295.1,619.9v9.6l-29-9.5v-9.8L295.1,619.9z M295.1,630.5v10.8l-29-9.3v-11L295.1,630.5z
		 M295.1,642.3v10.8l-29-9v-11L295.1,642.3z M295.1,654.2v9.6l-29-8.8v-9.8L295.1,654.2z M295.1,664.8v10.8l-29-8.5v-11L295.1,664.8
		z M296.1,665.1l25,7.6v10.5l-25-7.4V665.1z M322.1,673l24,7.3v10.3l-24-7.1V673z M347.1,680.5l25,7.6v10.1l-25-7.4V680.5z
		 M373.1,688.4l25,7.6v9.9l-25-7.4V688.4z M399.1,696.3l21,6.4v9.7l-21-6.2V696.3z M421.1,703l22,6.7v9.5l-22-6.5V703z M444.1,709.9
		l22,6.7v9.3l-22-6.5V709.9z M467.1,716.9l18,5.5v9.1l-18-5.3V716.9z M486.1,722.7l18,5.5v8.9l-18-5.3V722.7z M505.1,728.4l19,5.8
		v8.7l-19-5.6V728.4z M525.1,734.5l16,4.8v8.6l-16-4.7V734.5z M542.1,739.6l18,5.5v8.4l-18-5.3V739.6z M561.1,745.4l17,5.2v8.3
		l-17-5V745.4z M579.1,750.9l16,4.8v8.1l-16-4.7V750.9z M596.1,756l16,4.8v8l-16-4.7V756z M613.1,761.2l15,4.5v7.8l-15-4.4V761.2z
		 M629.1,766l15,4.5v7.7l-15-4.4V766z M629.1,765V758l15,4.7v6.8L629.1,765z M629.1,757v-7.8l15,4.8v7.7L629.1,757z M629.1,748.1
		v-7.8l15,4.9v7.7L629.1,748.1z M629.1,739.3v-6.9l15,5.1v6.8L629.1,739.3z M629.1,731.3v-7.8l15,5.2v7.7L629.1,731.3z M629.1,722.5
		v-7.8l15,5.3v7.7L629.1,722.5z M629.1,713.6v-7.8l15,5.5v7.7L629.1,713.6z M629.1,704.8v-6.9l15,5.6v6.8L629.1,704.8z M629.1,696.8
		V689l15,5.7v7.7L629.1,696.8z M629.1,687.9v-7.8l15,5.8v7.6L629.1,687.9z M629.1,679.1v-7.8l15,6v7.6L629.1,679.1z M629.1,670.2
		v-6.9l15,6.1v6.8L629.1,670.2z M629.1,662.3v-7.8l15,6.2v7.6L629.1,662.3z M629.1,653.4v-7.8l15,6.4v7.6L629.1,653.4z M629.1,644.5
		v-7.8l15,6.5v7.6L629.1,644.5z M629.1,635.7v-6.9l15,6.6v6.8L629.1,635.7z M629.1,627.7V620l15,6.7v7.6L629.1,627.7z M629.1,618.9
		v-7.8l15,6.9v7.6L629.1,618.9z M629.1,610v-6.9l15,7v6.7L629.1,610z M629.1,602v-7.7l15,7.1v7.6L629.1,602z M629.1,593.2v-7.7
		l15,7.3v7.6L629.1,593.2z M629.1,584.3v-7.7l15,7.4v7.6L629.1,584.3z M629.1,575.5v-6.9l15,7.5v6.7L629.1,575.5z M629.1,567.5v-7.7
		l15,7.6v7.6L629.1,567.5z M629.1,558.6v-7.7l15,7.8v7.6L629.1,558.6z M629.1,549.8V543l15,7.9v6.7L629.1,549.8z M629.1,541.8v-7.7
		l15,8v7.6L629.1,541.8z M629.1,533v-7.7l15,8.2v7.6L629.1,533z M629.1,524.1v-6.8l15,8.3v6.7L629.1,524.1z M629.1,516.1v-7.7
		l15,8.4v7.6L629.1,516.1z M629.1,507.3v-7.7l15,8.6v7.6L629.1,507.3z M629.1,498.4v-7.7l15,8.7v7.6L629.1,498.4z M629.1,489.6v-6.8
		l15,8.8v6.7L629.1,489.6z M629.1,481.6v-7.7l15,8.9v7.6L629.1,481.6z M629.1,472.7v-7.7l15,9.1v7.6L629.1,472.7z M628.1,472.2
		l-15-8.9v-7.8l15,9.1V472.2z M612.1,462.6l-16-9.5v-8l16,9.7V462.6z M595.1,452.5l-16-9.5v-8.1l16,9.7V452.5z M578.1,442.4
		l-17-10.1v-8.3l17,10.3V442.4z M560.1,431.6l-18-10.7v-8.5l18,10.9V431.6z M541.1,420.3l-16-9.5v-8.6l16,9.7V420.3z M524.1,410.2
		l-19-11.3v-8.8l19,11.5V410.2z M504.1,398.3l-18-10.7v-9l18,10.9V398.3z M485.1,387l-18-10.7v-9.1l18,10.9V387z M466.1,375.6
		l-22-13.1v-9.3l22,13.3V375.6z M443.1,361.9l-22-13.1v-9.5l22,13.3V361.9z M420.1,348.2l-21-12.5V326l21,12.7V348.2z M398.1,335.1
		l-25-14.9v-10l25,15.1V335.1z M372.1,319.6l-25-14.9v-10.2l25,15.1V319.6z M346.1,304.1l-24-14.3v-10.4l24,14.5V304.1z
		 M321.1,289.2l-25-14.9v-10.6l25,15.1V289.2z M295.1,273.7l-29-17.3v-10.9l29,17.5V273.7z M265.1,255.9l-27-16.1v-11.2l27,16.3
		V255.9z M265.1,257V268l-27-15.8V241L265.1,257z M265.1,269.1v9.7l-27-15.6v-9.9L265.1,269.1z M265.1,280v10.9l-27-15.4v-11.2
		L265.1,280z M265.1,292.1V303l-27-15.2v-11.2L265.1,292.1z M265.1,304.2v10.9l-27-14.9V289L265.1,304.2z M265.1,316.2v9.7l-27-14.7
		v-9.9L265.1,316.2z M265.1,327.1V338l-27-14.5v-11.2L265.1,327.1z M265.1,339.2v11l-27-14.2v-11.2L265.1,339.2z M265.1,351.3v9.7
		l-27-14v-10L265.1,351.3z M265.1,362.1v11l-27-13.8v-11.2L265.1,362.1z M265.1,374.2v11l-27-13.5v-11.2L265.1,374.2z M265.1,386.3
		v9.8l-27-13.3v-10L265.1,386.3z M265.1,397.2v11l-27-13.1v-11.2L265.1,397.2z M265.1,409.2v11l-27-12.8v-11.2L265.1,409.2z
		 M265.1,421.3v11l-27-12.6v-11.2L265.1,421.3z M265.1,433.4v9.8l-27-12.4v-10L265.1,433.4z M265.1,444.3v11l-27-12.1v-11.2
		L265.1,444.3z M265.1,456.4v11l-27-11.9v-11.2L265.1,456.4z M265.1,468.4v9.8l-27-11.7v-10L265.1,468.4z M265.1,479.3v11l-27-11.4
		v-11.2L265.1,479.3z M265.1,491.4v11l-27-11.2V480L265.1,491.4z M265.1,503.5v11l-27-11v-11.2L265.1,503.5z M265.1,515.6v9.8
		l-27-10.7v-10L265.1,515.6z M265.1,526.4v11l-27-10.5v-11.2L265.1,526.4z M265.1,538.5v11l-27-10.3V528L265.1,538.5z M265.1,550.6
		v11l-27-10v-11.3L265.1,550.6z M265.1,562.7v9.8l-27-9.8v-10L265.1,562.7z M265.1,573.5v11l-27-9.6v-11.3L265.1,573.5z
		 M265.1,585.6v11l-27-9.3v-11.3L265.1,585.6z M265.1,597.7v11l-27-9.1v-11.3L265.1,597.7z M265.1,609.8v9.8l-27-8.9v-10
		L265.1,609.8z M265.1,620.7v11l-27-8.6v-11.3L265.1,620.7z M265.1,632.7v11l-27-8.4v-11.3L265.1,632.7z M265.1,644.8v9.8l-27-8.2
		v-10L265.1,644.8z M265.1,655.7v11l-27-7.9v-11.3L265.1,655.7z M265.1,667.8v11l-27-7.7v-11.3L265.1,667.8z M266.1,668.1l29,8.5
		v10.8l-29-8.3V668.1z M296.1,676.9l25,7.4v10.5l-25-7.1V676.9z M322.1,684.5l24,7.1v10.3l-24-6.8V684.5z M347.1,691.9l25,7.4v10.1
		l-25-7.1V691.9z M373.1,699.5l25,7.4v9.9l-25-7.1V699.5z M399.1,707.2l21,6.2v9.7l-21-6V707.2z M421.1,713.7l22,6.5v9.5l-22-6.3
		V713.7z M444.1,720.4l22,6.5v9.3l-22-6.3V720.4z M467.1,727.2l18,5.3v9.1l-18-5.1V727.2z M486.1,732.8l18,5.3v8.9l-18-5.1V732.8z
		 M505.1,738.4l19,5.6v8.7l-19-5.4V738.4z M525.1,744.3l16,4.7v8.6l-16-4.6V744.3z M542.1,749.3l18,5.3v8.4l-18-5.1V749.3z
		 M561.1,754.9l17,5v8.3l-17-4.9V754.9z M579.1,760.2l16,4.7v8.1l-16-4.6V760.2z M596.1,765.2l16,4.7v8l-16-4.6V765.2z M613.1,770.2
		l15,4.4v7.8l-15-4.3V770.2z M629.1,774.9l15,4.4v7.7l-15-4.3V774.9z M645.1,779.6l12,3.5v7.6l-12-3.4V779.6z M645.1,778.5v-7.7
		l12,3.6v7.6L645.1,778.5z M645.1,769.8V763l12,3.7v6.7L645.1,769.8z M645.1,762v-7.7l12,3.8v7.6L645.1,762z M645.1,753.3v-7.7
		l12,3.9v7.6L645.1,753.3z M645.1,744.6v-6.8l12,4v6.7L645.1,744.6z M645.1,736.7v-7.7l12,4.1v7.5L645.1,736.7z M645.1,728v-7.7
		l12,4.3v7.5L645.1,728z M645.1,719.3v-7.6l12,4.4v7.5L645.1,719.3z M645.1,710.6v-6.8l12,4.5v6.7L645.1,710.6z M645.1,702.7v-7.6
		l12,4.6v7.5L645.1,702.7z M645.1,694v-7.6l12,4.7v7.5L645.1,694z M645.1,685.3v-7.6l12,4.8v7.5L645.1,685.3z M645.1,676.6v-6.8
		l12,4.9v6.7L645.1,676.6z M645.1,668.7v-7.6l12,5v7.5L645.1,668.7z M645.1,660v-7.6l12,5.1v7.5L645.1,660z M645.1,651.3v-7.6
		l12,5.2v7.5L645.1,651.3z M645.1,642.6v-6.7l12,5.3v6.7L645.1,642.6z M645.1,634.8v-7.6l12,5.4v7.5L645.1,634.8z M645.1,626.1v-7.6
		l12,5.5v7.5L645.1,626.1z M645.1,617.3v-6.7l12,5.6v6.6L645.1,617.3z M645.1,609.5v-7.6l12,5.7v7.5L645.1,609.5z M645.1,600.8v-7.6
		l12,5.8v7.5L645.1,600.8z M645.1,592.1v-7.6l12,5.9v7.5L645.1,592.1z M645.1,583.4v-6.7l12,6v6.6L645.1,583.4z M645.1,575.5v-7.6
		l12,6.1v7.5L645.1,575.5z M645.1,566.8v-7.6l12,6.2v7.5L645.1,566.8z M645.1,558.1v-6.7l12,6.3v6.6L645.1,558.1z M645.1,550.2v-7.6
		l12,6.4v7.5L645.1,550.2z M645.1,541.5V534l12,6.5v7.5L645.1,541.5z M645.1,532.8v-6.7l12,6.6v6.6L645.1,532.8z M645.1,525v-7.6
		l12,6.7v7.5L645.1,525z M645.1,516.3v-7.6l12,6.8v7.5L645.1,516.3z M645.1,507.5V500l12,6.9v7.5L645.1,507.5z M645.1,498.8v-6.7
		l12,7v6.6L645.1,498.8z M645.1,491v-7.5l12,7.2v7.4L645.1,491z M645.1,482.3v-7.5l12,7.3v7.4L645.1,482.3z M645.1,473.6v-6.7
		l12,7.4v6.6L645.1,473.6z M644.1,473l-15-9.1v-6.8l15,9.2V473z M628.1,463.3l-15-9.1v-6.9l15,9.2V463.3z M612.1,453.6l-16-9.7v-7.1
		l16,9.8V453.6z M595.1,443.3l-16-9.7v-7.2l16,9.8V443.3z M578.1,433.1l-17-10.3v-7.3l17,10.4V433.1z M560.1,422.2l-18-10.9v-7.5
		l18,11V422.2z M541.1,410.7l-16-9.7v-7.6l16,9.8V410.7z M524.1,400.4l-19-11.5v-7.8l19,11.6V400.4z M504.1,388.3l-18-10.9v-7.9
		l18,11V388.3z M485.1,376.8l-18-10.9v-8.1l18,11V376.8z M466.1,365.3l-22-13.3v-8.3l22,13.5V365.3z M443.1,351.4l-22-13.3v-8.5
		l22,13.5V351.4z M420.1,337.5l-21-12.7v-8.6l21,12.9V337.5z M398.1,324.2l-25-15.1v-8.8l25,15.3V324.2z M372.1,308.5l-25-15.1v-9
		l25,15.3V308.5z M346.1,292.8l-24-14.5V269l24,14.7V292.8z M321.1,277.7l-25-15.1v-9.5l25,15.3V277.7z M295.1,261.9l-29-17.5v-9.7
		l29,17.8V261.9z M265.1,243.8l-27-16.3v-9.9l27,16.5V243.8z M237.1,226.9l-29-17.5v-10.2l29,17.8V226.9z M237.1,228v11.2l-29-17.3
		v-11.4L237.1,228z M237.1,240.4v11.2l-29-17v-11.4L237.1,240.4z M237.1,252.7v9.9l-29-16.8v-10.2L237.1,252.7z M237.1,263.8V275
		l-29-16.5V247L237.1,263.8z M237.1,276.1v11.2l-29-16.3v-11.4L237.1,276.1z M237.1,288.4v11.2l-29-16v-11.4L237.1,288.4z
		 M237.1,300.8v10l-29-15.8v-10.2L237.1,300.8z M237.1,311.9v11.2l-29-15.5v-11.5L237.1,311.9z M237.1,324.2v11.2l-29-15.3v-11.5
		L237.1,324.2z M237.1,336.5v10l-29-15v-10.2L237.1,336.5z M237.1,347.6v11.2l-29-14.8v-11.5L237.1,347.6z M237.1,359.9v11.2
		l-29-14.5v-11.5L237.1,359.9z M237.1,372.3v10l-29-14.3v-10.2L237.1,372.3z M237.1,383.4v11.2l-29-14v-11.5L237.1,383.4z
		 M237.1,395.7v11.2l-29-13.8v-11.5L237.1,395.7z M237.1,408v11.2l-29-13.5v-11.5L237.1,408z M237.1,420.4v10l-29-13.3v-10.2
		L237.1,420.4z M237.1,431.4v11.2l-29-13v-11.5L237.1,431.4z M237.1,443.8V455l-29-12.8v-11.5L237.1,443.8z M237.1,456.1v10
		l-29-12.5v-10.2L237.1,456.1z M237.1,467.2v11.2l-29-12.3v-11.5L237.1,467.2z M237.1,479.5v11.2l-29-12v-11.5L237.1,479.5z
		 M237.1,491.9v11.2l-29-11.8v-11.5L237.1,491.9z M237.1,504.2v10l-29-11.5v-10.3L237.1,504.2z M237.1,515.3v11.3l-29-11.3v-11.5
		L237.1,515.3z M237.1,527.6v11.3l-29-11v-11.5L237.1,527.6z M237.1,539.9v11.3l-29-10.8v-11.5L237.1,539.9z M237.1,552.3v10
		l-29-10.5v-10.3L237.1,552.3z M237.1,563.4v11.3l-29-10.3v-11.5L237.1,563.4z M237.1,575.7V587l-29-10v-11.5L237.1,575.7z
		 M237.1,588v11.3l-29-9.8V578L237.1,588z M237.1,600.4v10l-29-9.5v-10.3L237.1,600.4z M237.1,611.4v11.3l-29-9.3v-11.5L237.1,611.4
		z M237.1,623.8v11.3l-29-9v-11.5L237.1,623.8z M237.1,636.1v10.1l-29-8.8v-10.3L237.1,636.1z M237.1,647.2v11.3l-29-8.5v-11.5
		L237.1,647.2z M237.1,659.5v11.3l-29-8.3V651L237.1,659.5z M237.1,671.9v11.3l-29-8v-11.5L237.1,671.9z M238.1,672.1l27,7.7v11
		l-27-7.5V672.1z M266.1,680.1l29,8.3v10.8l-29-8V680.1z M296.1,688.7l25,7.1v10.5l-25-6.9V688.7z M322.1,696.1l24,6.8v10.3l-24-6.6
		V696.1z M347.1,703.3l25,7.1v10.1l-25-6.9V703.3z M373.1,710.7l25,7.1v9.9l-25-6.9V710.7z M399.1,718.1l21,6v9.7l-21-5.8V718.1z
		 M421.1,724.4l22,6.3v9.5l-22-6.1V724.4z M444.1,730.9l22,6.3v9.3l-22-6.1V730.9z M467.1,737.5l18,5.1v9.1l-18-5V737.5z
		 M486.1,742.9l18,5.1v8.9l-18-5V742.9z M505.1,748.3l19,5.4v8.7l-19-5.3V748.3z M525.1,754l16,4.6v8.6l-16-4.4V754z M542.1,758.9
		l18,5.1v8.4l-18-5V758.9z M561.1,764.3l17,4.9v8.3l-17-4.7V764.3z M579.1,769.5l16,4.6v8.1l-16-4.4V769.5z M596.1,774.3l16,4.6v8
		l-16-4.4V774.3z M613.1,779.2l15,4.3v7.8l-15-4.1V779.2z M629.1,783.7l15,4.3v7.7l-15-4.1V783.7z M645.1,788.3l12,3.4v7.6l-12-3.3
		V788.3z M658.1,792l14,4v7.4l-14-3.9V792z M658.1,791v-7.6l14,4.1v7.4L658.1,791z M658.1,782.4v-7.6l14,4.2v7.4L658.1,782.4z
		 M658.1,773.8v-6.7l14,4.4v6.6L658.1,773.8z M658.1,766v-7.5l14,4.5v7.4L658.1,766z M658.1,757.4v-7.5l14,4.6v7.4L658.1,757.4z
		 M658.1,748.8v-6.7l14,4.7v6.6L658.1,748.8z M658.1,741.1v-7.5l14,4.8v7.4L658.1,741.1z M658.1,732.5V725l14,5v7.4L658.1,732.5z
		 M658.1,723.9v-7.5l14,5.1v7.4L658.1,723.9z M658.1,715.3v-6.7l14,5.2v6.6L658.1,715.3z M658.1,707.6V700l14,5.3v7.4L658.1,707.6z
		 M658.1,699v-7.5l14,5.4v7.4L658.1,699z M658.1,690.4v-7.5l14,5.6v7.4L658.1,690.4z M658.1,681.8v-6.7l14,5.7v6.5L658.1,681.8z
		 M658.1,674v-7.5l14,5.8v7.4L658.1,674z M658.1,665.4v-7.5l14,5.9v7.4L658.1,665.4z M658.1,656.8v-7.5l14,6.1v7.4L658.1,656.8z
		 M658.1,648.2v-6.6l14,6.2v6.5L658.1,648.2z M658.1,640.5V633l14,6.3v7.4L658.1,640.5z M658.1,631.9v-7.5l14,6.4v7.4L658.1,631.9z
		 M658.1,623.3v-6.6l14,6.5v6.5L658.1,623.3z M658.1,615.6v-7.5l14,6.7v7.4L658.1,615.6z M658.1,607v-7.5l14,6.8v7.4L658.1,607z
		 M658.1,598.4v-7.5l14,6.9v7.4L658.1,598.4z M658.1,589.8v-6.6l14,7v6.5L658.1,589.8z M658.1,582v-7.5l14,7.1v7.4L658.1,582z
		 M658.1,573.4V566l14,7.3v7.3L658.1,573.4z M658.1,564.8v-6.6l14,7.4v6.5L658.1,564.8z M658.1,557.1v-7.5l14,7.5v7.3L658.1,557.1z
		 M658.1,548.5V541l14,7.6v7.3L658.1,548.5z M658.1,539.9v-6.6l14,7.7v6.5L658.1,539.9z M658.1,532.2v-7.5l14,7.9v7.3L658.1,532.2z
		 M658.1,523.6v-7.4l14,8v7.3L658.1,523.6z M658.1,515v-7.4l14,8.1v7.3L658.1,515z M658.1,506.4v-6.6l14,8.2v6.5L658.1,506.4z
		 M658.1,498.6v-7.4l14,8.3v7.3L658.1,498.6z M658.1,490v-7.4l14,8.5v7.3L658.1,490z M658.1,481.4v-6.6l14,8.6v6.5L658.1,481.4z
		 M658.1,473.7v-7.4l14,8.7v7.3L658.1,473.7z M657.1,473.1l-12-7.4v-7.5l12,7.5V473.1z M644.1,465.1l-15-9.2v-7.7l15,9.3V465.1z
		 M628.1,455.3l-15-9.2v-7.8l15,9.3V455.3z M612.1,445.5l-16-9.8v-8l16,9.9V445.5z M595.1,435.1l-16-9.8v-8.1l16,9.9V435.1z
		 M578.1,424.7l-17-10.4V406l17,10.6V424.7z M560.1,413.6l-18-11v-8.5l18,11.2V413.6z M541.1,402l-16-9.8v-8.6l16,9.9V402z
		 M524.1,391.6l-19-11.6v-8.8l19,11.8V391.6z M504.1,379.3l-18-11v-8.9l18,11.2V379.3z M485.1,367.7l-18-11v-9.1l18,11.2V367.7z
		 M466.1,356.1l-22-13.5v-9.3l22,13.7V356.1z M443.1,342l-22-13.5V319l22,13.7V342z M420.1,327.9l-21-12.9v-9.7l21,13.1V327.9z
		 M398.1,314.4l-25-15.3v-9.9l25,15.5V314.4z M372.1,298.5l-25-15.3V273l25,15.5V298.5z M346.1,282.5l-24-14.7v-10.4l24,14.9V282.5z
		 M321.1,267.2l-25-15.3v-10.6l25,15.5V267.2z M295.1,251.3l-29-17.8v-10.9l29,18V251.3z M265.1,232.9l-27-16.5v-11.1l27,16.8V232.9
		z M237.1,215.8l-29-17.8v-11.4l29,18V215.8z M207.1,197.4l-34-20.8v-11.7l34,21.1V197.4z M207.1,198.6v10.2l-34-20.6v-10.4
		L207.1,198.6z M207.1,209.9v11.4l-34-20.3v-11.7L207.1,209.9z M207.1,222.5v11.4l-34-20v-11.7L207.1,222.5z M207.1,235.1v10.2
		l-34-19.7v-10.5L207.1,235.1z M207.1,246.4v11.4l-34-19.4v-11.7L207.1,246.4z M207.1,259v11.4l-34-19.1v-11.7L207.1,259z
		 M207.1,271.6v11.5l-34-18.8v-11.8L207.1,271.6z M207.1,284.2v10.2l-34-18.5v-10.5L207.1,284.2z M207.1,295.5V307l-34-18.2V277
		L207.1,295.5z M207.1,308.1v11.5l-34-17.9v-11.8L207.1,308.1z M207.1,320.7v10.2l-34-17.6v-10.5L207.1,320.7z M207.1,332.1v11.5
		l-34-17.3v-11.8L207.1,332.1z M207.1,344.6v11.5l-34-17v-11.8L207.1,344.6z M207.1,357.2v10.2l-34-16.8v-10.5L207.1,357.2z
		 M207.1,368.6v11.5l-34-16.5v-11.8L207.1,368.6z M207.1,381.2v11.5l-34-16.2v-11.8L207.1,381.2z M207.1,393.8v11.5l-34-15.9v-11.8
		L207.1,393.8z M207.1,406.4v10.2l-34-15.6v-10.5L207.1,406.4z M207.1,417.7v11.5l-34-15.3v-11.8L207.1,417.7z M207.1,430.3v11.5
		l-34-15V415L207.1,430.3z M207.1,442.9v10.2l-34-14.7v-10.5L207.1,442.9z M207.1,454.2v11.5l-34-14.4v-11.8L207.1,454.2z
		 M207.1,466.8v11.5l-34-14.1v-11.8L207.1,466.8z M207.1,479.4v11.5l-34-13.8v-11.8L207.1,479.4z M207.1,492v10.3l-34-13.5v-10.5
		L207.1,492z M207.1,503.3v11.5l-34-13.2v-11.8L207.1,503.3z M207.1,515.9v11.5l-34-12.9v-11.8L207.1,515.9z M207.1,528.5v11.5
		l-34-12.6v-11.8L207.1,528.5z M207.1,541.1v10.3l-34-12.4v-10.5L207.1,541.1z M207.1,552.5V564l-34-12.1v-11.8L207.1,552.5z
		 M207.1,565.1v11.5l-34-11.8V553L207.1,565.1z M207.1,577.7v11.5l-34-11.5v-11.8L207.1,577.7z M207.1,590.2v10.3l-34-11.2v-10.6
		L207.1,590.2z M207.1,601.6v11.5l-34-10.9v-11.8L207.1,601.6z M207.1,614.2v11.5l-34-10.6v-11.8L207.1,614.2z M207.1,626.8v10.3
		l-34-10.3v-10.6L207.1,626.8z M207.1,638.1v11.6l-34-10v-11.9L207.1,638.1z M207.1,650.7v11.6l-34-9.7v-11.9L207.1,650.7z
		 M207.1,663.3v11.6l-34-9.4v-11.9L207.1,663.3z M207.1,675.9v10.3l-34-9.1v-10.6L207.1,675.9z M208.1,676.2l29,8v10.1l-29-7.8
		V676.2z M238.1,684.5l27,7.5v9.8l-27-7.2V684.5z M266.1,692.2l29,8v9.6l-29-7.8V692.2z M296.1,700.5l25,6.9v9.4l-25-6.7V700.5z
		 M322.1,707.7l24,6.6v9.2l-24-6.4V707.7z M347.1,714.6l25,6.9v9l-25-6.7V714.6z M373.1,721.8l25,6.9v8.8l-25-6.7V721.8z M399.1,729
		l21,5.8v8.6l-21-5.6V729z M421.1,735.1l22,6.1v8.4l-22-5.9V735.1z M444.1,741.4l22,6.1v8.2l-22-5.9V741.4z M467.1,747.8l18,5v8.1
		l-18-4.8V747.8z M486.1,753l18,5v7.9l-18-4.8V753z M505.1,758.3l19,5.3v7.8l-19-5.1V758.3z M525.1,763.8l16,4.4v7.6l-16-4.3V763.8z
		 M542.1,768.5l18,5v7.5l-18-4.8V768.5z M561.1,773.8l17,4.7v7.3l-17-4.6V773.8z M579.1,778.7l16,4.4v7.2l-16-4.3V778.7z
		 M596.1,783.4l16,4.4v7.1l-16-4.3V783.4z M613.1,788.1l15,4.1v6.9l-15-4V788.1z M629.1,792.6l15,4.1v6.8l-15-4V792.6z M645.1,797
		l12,3.3v6.7l-12-3.2V797z M658.1,800.6l14,3.9v6.6l-14-3.8V800.6z M673.1,804.7l13,3.6v6.5l-13-3.5V804.7z M673.1,803.7v-7.4
		l13,3.7v7.3L673.1,803.7z M673.1,795.2v-7.4l13,3.8v7.3L673.1,795.2z M673.1,786.8v-7.4l13,3.9v7.3L673.1,786.8z M673.1,778.3v-6.6
		l13,4v6.5L673.1,778.3z M673.1,770.7v-7.4l13,4.2v7.3L673.1,770.7z M673.1,762.2v-7.4l13,4.3v7.3L673.1,762.2z M673.1,753.8v-6.6
		l13,4.4v6.5L673.1,753.8z M673.1,746.1v-7.4l13,4.5v7.3L673.1,746.1z M673.1,737.7v-7.4l13,4.6v7.3L673.1,737.7z M673.1,729.2v-7.4
		l13,4.7v7.3L673.1,729.2z M673.1,720.7v-6.6l13,4.8v6.4L673.1,720.7z M673.1,713.1v-7.4l13,4.9v7.3L673.1,713.1z M673.1,704.7v-7.4
		l13,5.1v7.3L673.1,704.7z M673.1,696.2v-7.4l13,5.2v7.3L673.1,696.2z M673.1,687.7v-6.5l13,5.3v6.4L673.1,687.7z M673.1,680.1v-7.4
		l13,5.4v7.3L673.1,680.1z M673.1,671.7v-7.4l13,5.5v7.3L673.1,671.7z M673.1,663.2v-7.4l13,5.6v7.3L673.1,663.2z M673.1,654.7v-6.5
		l13,5.7v6.4L673.1,654.7z M673.1,647.1v-7.4l13,5.8v7.3L673.1,647.1z M673.1,638.6v-7.4l13,6v7.2L673.1,638.6z M673.1,630.2v-6.5
		l13,6.1v6.4L673.1,630.2z M673.1,622.6v-7.4l13,6.2v7.2L673.1,622.6z M673.1,614.1v-7.4l13,6.3v7.2L673.1,614.1z M673.1,605.6v-7.3
		l13,6.4v7.2L673.1,605.6z M673.1,597.2v-6.5l13,6.5v6.4L673.1,597.2z M673.1,589.5v-7.3l13,6.6v7.2L673.1,589.5z M673.1,581.1v-7.3
		l13,6.7v7.2L673.1,581.1z M673.1,572.6v-6.5l13,6.8v6.4L673.1,572.6z M673.1,565v-7.3l13,7v7.2L673.1,565z M673.1,556.5v-7.3
		l13,7.1v7.2L673.1,556.5z M673.1,548.1v-6.5l13,7.2v6.4L673.1,548.1z M673.1,540.4v-7.3l13,7.3v7.2L673.1,540.4z M673.1,532v-7.3
		l13,7.4v7.2L673.1,532z M673.1,523.5v-7.3l13,7.5v7.2L673.1,523.5z M673.1,515v-6.5l13,7.6v6.4L673.1,515z M673.1,507.4v-7.3
		l13,7.7v7.2L673.1,507.4z M673.1,499v-7.3l13,7.9v7.2L673.1,499z M673.1,490.5V484l13,8v6.3L673.1,490.5z M673.1,482.9v-7.3l13,8.1
		v7.2L673.1,482.9z M673.1,474.4v-7.3l13,8.2v7.2L673.1,474.4z M672.1,473.8l-14-8.7v-7.4l14,8.8V473.8z M657.1,464.5l-12-7.5v-7.5
		l12,7.6V464.5z M644.1,456.4l-15-9.3v-7.7l15,9.5V456.4z M628.1,446.4l-15-9.3v-7.8l15,9.5V446.4z M612.1,436.5l-16-9.9v-8l16,10.1
		V436.5z M595.1,425.9l-16-9.9v-8.1l16,10.1V425.9z M578.1,415.4l-17-10.6v-8.3l17,10.7V415.4z M560.1,404.2l-18-11.2v-8.4l18,11.3
		V404.2z M541.1,392.4l-16-9.9v-8.6l16,10.1V392.4z M524.1,381.8l-19-11.8v-8.8l19,12V381.8z M504.1,369.4l-18-11.2v-8.9l18,11.3
		V369.4z M485.1,357.6l-18-11.2v-9.1l18,11.3V357.6z M466.1,345.8l-22-13.7v-9.3l22,13.9V345.8z M443.1,331.5l-22-13.7v-9.5l22,13.9
		V331.5z M420.1,317.2l-21-13.1v-9.7l21,13.2V317.2z M398.1,303.5l-25-15.5V278l25,15.8V303.5z M372.1,287.3l-25-15.5v-10.2l25,15.8
		V287.3z M346.1,271.2l-24-14.9v-10.4l24,15.1V271.2z M321.1,255.6l-25-15.5v-10.6l25,15.8V255.6z M295.1,239.5l-29-18v-10.9
		l29,18.3V239.5z M265.1,220.8l-27-16.8v-11.1l27,17V220.8z M237.1,203.4l-29-18V174l29,18.3V203.4z M207.1,184.8l-34-21.1v-11.7
		l34,21.4V184.8z M172.1,163l-31-19.3v-12l31,19.5V163z M172.1,164.2v11.7l-31-19v-12L172.1,164.2z M172.1,177.1v10.4l-31-18.7
		v-10.7L172.1,177.1z M172.1,188.7v11.7l-31-18.5v-12L172.1,188.7z M172.1,201.6v11.7l-31-18.2v-12L172.1,201.6z M172.1,214.5V225
		l-31-17.9v-10.7L172.1,214.5z M172.1,226.1v11.8l-31-17.7v-12L172.1,226.1z M172.1,239.1v11.8l-31-17.4v-12L172.1,239.1z
		 M172.1,252v11.8l-31-17.1v-12L172.1,252z M172.1,264.9v10.5l-31-16.9v-10.7L172.1,264.9z M172.1,276.5v11.8l-31-16.6v-12
		L172.1,276.5z M172.1,289.4v11.8l-31-16.3v-12L172.1,289.4z M172.1,302.3v10.5l-31-16.1V286L172.1,302.3z M172.1,313.9v11.8
		l-31-15.8v-12.1L172.1,313.9z M172.1,326.8v11.8l-31-15.5V311L172.1,326.8z M172.1,339.7v10.5l-31-15.3v-10.7L172.1,339.7z
		 M172.1,351.3v11.8l-31-15V336L172.1,351.3z M172.1,364.2V376l-31-14.7v-12.1L172.1,364.2z M172.1,377.1v11.8l-31-14.5v-12.1
		L172.1,377.1z M172.1,390v10.5l-31-14.2v-10.8L172.1,390z M172.1,401.7v11.8l-31-13.9v-12.1L172.1,401.7z M172.1,414.6v11.8
		l-31-13.7v-12.1L172.1,414.6z M172.1,427.5V438l-31-13.4v-10.8L172.1,427.5z M172.1,439.1v11.8l-31-13.1v-12.1L172.1,439.1z
		 M172.1,452v11.8l-31-12.9v-12.1L172.1,452z M172.1,464.9v11.8l-31-12.6V452L172.1,464.9z M172.1,477.8v10.5l-31-12.3v-10.8
		L172.1,477.8z M172.1,489.4v11.8l-31-12.1v-12.1L172.1,489.4z M172.1,502.3v11.8l-31-11.8v-12.1L172.1,502.3z M172.1,515.2v11.8
		l-31-11.5v-12.1L172.1,515.2z M172.1,528.1v10.6l-31-11.3v-10.8L172.1,528.1z M172.1,539.7v11.8l-31-11v-12.1L172.1,539.7z
		 M172.1,552.7v11.8l-31-10.7v-12.1L172.1,552.7z M172.1,565.6v11.9l-31-10.4v-12.1L172.1,565.6z M172.1,578.5V589l-31-10.2V568
		L172.1,578.5z M172.1,590.1v11.9l-31-9.9v-12.1L172.1,590.1z M172.1,603v11.9l-31-9.6v-12.1L172.1,603z M172.1,615.9v10.6l-31-9.4
		v-10.8L172.1,615.9z M172.1,627.5v11.9l-31-9.1v-12.1L172.1,627.5z M172.1,640.4v11.9l-31-8.8v-12.1L172.1,640.4z M172.1,653.3
		v11.9l-31-8.6v-12.1L172.1,653.3z M172.1,666.2v10.6l-31-8.3v-10.8L172.1,666.2z M172.1,677.8v11.9l-31-8v-12.1L172.1,677.8z
		 M173.1,678.1l34,9.1v11.6l-34-8.8V678.1z M208.1,687.5l29,7.8v11.3l-29-7.5V687.5z M238.1,695.6l27,7.2v11l-27-7V695.6z
		 M266.1,703.1l29,7.8v10.8l-29-7.5V703.1z M296.1,711.1l25,6.7v10.6l-25-6.5V711.1z M322.1,718.1l24,6.4v10.3l-24-6.2V718.1z
		 M347.1,724.8l25,6.7v10.1l-25-6.5V724.8z M373.1,731.8l25,6.7v9.9l-25-6.5V731.8z M399.1,738.8l21,5.6v9.7l-21-5.5V738.8z
		 M421.1,744.7l22,5.9v9.5l-22-5.7V744.7z M444.1,750.9l22,5.9v9.3l-22-5.7V750.9z M467.1,757l18,4.8v9.1l-18-4.7V757z M486.1,762.1
		l18,4.8v8.9l-18-4.7V762.1z M505.1,767.2l19,5.1v8.8l-19-4.9V767.2z M525.1,772.6l16,4.3v8.6l-16-4.2V772.6z M542.1,777.2l18,4.8
		v8.4l-18-4.7V777.2z M561.1,782.3l17,4.6v8.3l-17-4.4V782.3z M579.1,787.1l16,4.3v8.1l-16-4.2V787.1z M596.1,791.7l16,4.3v8
		l-16-4.2V791.7z M613.1,796.2l15,4v7.8l-15-3.9V796.2z M629.1,800.5l15,4v7.7l-15-3.9V800.5z M645.1,804.8l12,3.2v7.6l-12-3.1
		V804.8z M658.1,808.3l14,3.8v7.4l-14-3.6V808.3z M673.1,812.4l13,3.5v7.3l-13-3.4V812.4z M687.1,816.1l14,3.8v7.2l-14-3.6V816.1z
		 M687.1,815.1v-6.5l14,3.9v6.4L687.1,815.1z M687.1,807.6v-7.3l14,4v7.2L687.1,807.6z M687.1,799.2v-7.3l14,4.1v7.2L687.1,799.2z
		 M687.1,790.9v-7.3l14,4.2v7.2L687.1,790.9z M687.1,782.5v-6.5l14,4.4v6.3L687.1,782.5z M687.1,775v-7.3l14,4.5v7.2L687.1,775z
		 M687.1,766.7v-7.3l14,4.6v7.2L687.1,766.7z M687.1,758.4v-6.5l14,4.7v6.3L687.1,758.4z M687.1,750.9v-7.3l14,4.8v7.2L687.1,750.9z
		 M687.1,742.5v-7.3l14,5v7.2L687.1,742.5z M687.1,734.2v-7.3l14,5.1v7.2L687.1,734.2z M687.1,725.8v-6.4l14,5.2v6.3L687.1,725.8z
		 M687.1,718.3v-7.3l14,5.3v7.1L687.1,718.3z M687.1,710v-7.3l14,5.4v7.1L687.1,710z M687.1,701.6v-7.3l14,5.6v7.1L687.1,701.6z
		 M687.1,693.3v-6.4l14,5.7v6.3L687.1,693.3z M687.1,685.8v-7.3l14,5.8v7.1L687.1,685.8z M687.1,677.5v-7.3l14,5.9v7.1L687.1,677.5z
		 M687.1,669.1v-7.3l14,6.1v7.1L687.1,669.1z M687.1,660.8v-6.4l14,6.2v6.3L687.1,660.8z M687.1,653.3V646l14,6.3v7.1L687.1,653.3z
		 M687.1,644.9v-7.2l14,6.4v7.1L687.1,644.9z M687.1,636.6v-6.4l14,6.5v6.3L687.1,636.6z M687.1,629.1v-7.2l14,6.7v7.1L687.1,629.1z
		 M687.1,620.7v-7.2l14,6.8v7.1L687.1,620.7z M687.1,612.4v-7.2l14,6.9v7.1L687.1,612.4z M687.1,604.1v-6.4l14,7v6.3L687.1,604.1z
		 M687.1,596.6v-7.2l14,7.1v7.1L687.1,596.6z M687.1,588.2V581l14,7.3v7.1L687.1,588.2z M687.1,579.9v-6.4l14,7.4v6.3L687.1,579.9z
		 M687.1,572.4v-7.2l14,7.5v7.1L687.1,572.4z M687.1,564v-7.2l14,7.6v7.1L687.1,564z M687.1,555.7v-6.4l14,7.7v6.3L687.1,555.7z
		 M687.1,548.2V541l14,7.9v7.1L687.1,548.2z M687.1,539.8v-7.2l14,8v7.1L687.1,539.8z M687.1,531.5v-7.2l14,8.1v7.1L687.1,531.5z
		 M687.1,523.2v-6.3l14,8.2v6.2L687.1,523.2z M687.1,515.6v-7.2l14,8.3v7.1L687.1,515.6z M687.1,507.3v-7.2l14,8.5v7L687.1,507.3z
		 M687.1,499v-6.3l14,8.6v6.2L687.1,499z M687.1,491.5v-7.2l14,8.7v7L687.1,491.5z M687.1,483.1V476l14,8.8v7L687.1,483.1z
		 M687.1,474.8v-7.2l14,9v7L687.1,474.8z M686.1,474.1l-13-8.2v-7.3l13,8.3V474.1z M672.1,465.3l-14-8.8v-7.4l14,9V465.3z
		 M657.1,455.9l-12-7.6v-7.5l12,7.7V455.9z M644.1,447.7l-15-9.5v-7.7l15,9.6V447.7z M628.1,437.6l-15-9.5v-7.8l15,9.6V437.6z
		 M612.1,427.5l-16-10.1v-8l16,10.2V427.5z M595.1,416.8l-16-10.1v-8.1l16,10.2V416.8z M578.1,406.1l-17-10.7v-8.3l17,10.9V406.1z
		 M560.1,394.7l-18-11.3v-8.4l18,11.5V394.7z M541.1,382.7l-16-10.1v-8.6l16,10.2V382.7z M524.1,372l-19-12v-8.8l19,12.1V372z
		 M504.1,359.4l-18-11.3v-8.9l18,11.5V359.4z M485.1,347.4l-18-11.3V327l18,11.5V347.4z M466.1,335.5l-22-13.9v-9.3l22,14.1V335.5z
		 M443.1,321l-22-13.9v-9.5l22,14.1V321z M420.1,306.5l-21-13.2v-9.7l21,13.4V306.5z M398.1,292.6l-25-15.8v-9.9l25,16V292.6z
		 M372.1,276.2l-25-15.8v-10.2l25,16V276.2z M346.1,259.8l-24-15.1v-10.4l24,15.3V259.8z M321.1,244l-25-15.8v-10.6l25,16V244z
		 M295.1,227.7l-29-18.3v-10.9l29,18.5V227.7z M265.1,208.7l-27-17v-11.1l27,17.3V208.7z M237.1,191.1l-29-18.3v-11.4l29,18.5V191.1
		z M207.1,172.2l-34-21.4V139l34,21.7V172.2z M172.1,150.1l-31-19.5v-12l31,19.8V150.1z M140.1,129.9l-38-24V93.6l38,24.3V129.9z
		 M140.1,131.1v12l-38-23.6v-12.3L140.1,131.1z M140.1,144.3v12l-38-23.3v-12.4L140.1,144.3z M140.1,157.5v10.7l-38-23v-11
		L140.1,157.5z M140.1,169.4v12l-38-22.6v-12.4L140.1,169.4z M140.1,182.6v12l-38-22.3v-12.4L140.1,182.6z M140.1,195.8v10.7l-38-22
		v-11L140.1,195.8z M140.1,207.6v12l-38-21.7v-12.4L140.1,207.6z M140.1,220.8v12l-38-21.3v-12.4L140.1,220.8z M140.1,234v12l-38-21
		v-12.4L140.1,234z M140.1,247.2v10.7l-38-20.7v-11L140.1,247.2z M140.1,259.1v12.1l-38-20.3v-12.4L140.1,259.1z M140.1,272.2v12.1
		l-38-20v-12.4L140.1,272.2z M140.1,285.4v10.7l-38-19.7v-11L140.1,285.4z M140.1,297.3v12.1l-38-19.4v-12.4L140.1,297.3z
		 M140.1,310.5v12.1l-38-19v-12.4L140.1,310.5z M140.1,323.7v10.8l-38-18.7v-11.1L140.1,323.7z M140.1,335.6v12.1l-38-18.4v-12.4
		L140.1,335.6z M140.1,348.7v12.1l-38-18.1v-12.4L140.1,348.7z M140.1,361.9V374l-38-17.7v-12.4L140.1,361.9z M140.1,375.1v10.8
		l-38-17.4v-11.1L140.1,375.1z M140.1,387v12.1l-38-17.1v-12.4L140.1,387z M140.1,400.2v12.1l-38-16.7v-12.4L140.1,400.2z
		 M140.1,413.4v10.8l-38-16.4v-11.1L140.1,413.4z M140.1,425.2v12.1l-38-16.1v-12.4L140.1,425.2z M140.1,438.4v12.1l-38-15.8v-12.4
		L140.1,438.4z M140.1,451.6v12.1l-38-15.4v-12.4L140.1,451.6z M140.1,464.8v10.8l-38-15.1v-11.1L140.1,464.8z M140.1,476.7v12.1
		l-38-14.8v-12.5L140.1,476.7z M140.1,489.9V502l-38-14.4v-12.5L140.1,489.9z M140.1,503.1v12.1l-38-14.1v-12.5L140.1,503.1z
		 M140.1,516.2v10.8l-38-13.8v-11.1L140.1,516.2z M140.1,528.1v12.1l-38-13.5v-12.5L140.1,528.1z M140.1,541.3v12.1l-38-13.1v-12.5
		L140.1,541.3z M140.1,554.5v12.1l-38-12.8v-12.5L140.1,554.5z M140.1,567.7v10.8l-38-12.5v-11.1L140.1,567.7z M140.1,579.6v12.1
		l-38-12.2v-12.5L140.1,579.6z M140.1,592.7v12.1l-38-11.8v-12.5L140.1,592.7z M140.1,605.9v10.8l-38-11.5v-11.1L140.1,605.9z
		 M140.1,617.8V630l-38-11.2v-12.5L140.1,617.8z M140.1,631v12.2l-38-10.8v-12.5L140.1,631z M140.1,644.2v12.2l-38-10.5v-12.5
		L140.1,644.2z M140.1,657.4v10.8l-38-10.2v-11.1L140.1,657.4z M140.1,669.2v12.2l-38-9.9V659L140.1,669.2z M140.1,682.4v12.2
		l-38-9.5v-12.5L140.1,682.4z M141.1,682.7l31,8v11.9l-31-7.8V682.7z M173.1,691l34,8.8v11.6l-34-8.5V691z M208.1,700.1l29,7.5v11.3
		l-29-7.3V700.1z M238.1,707.9l27,7v11l-27-6.8V707.9z M265.1,727v9.8l-27-6.6v-10.1L265.1,727z M266.1,727.2l29,7.3v9.6l-29-7
		V727.2z M266.1,726.2v-11l29,7.5v10.8L266.1,726.2z M296.1,722.9l25,6.5V740l-25-6.3V722.9z M322.1,729.7l24,6.2v10.3l-24-6V729.7z
		 M347.1,736.2l25,6.5v10.1l-25-6.3V736.2z M373.1,742.9l25,6.5v9.9l-25-6.3V742.9z M399.1,749.7l21,5.5v9.7l-21-5.3V749.7z
		 M421.1,755.4l22,5.7v9.5l-22-5.5V755.4z M444.1,761.4l22,5.7v9.3l-22-5.5V761.4z M467.1,767.3l18,4.7v9.1l-18-4.5V767.3z
		 M486.1,772.3l18,4.7v8.9l-18-4.5V772.3z M505.1,777.2l19,4.9v8.8l-19-4.8V777.2z M525.1,782.4l16,4.2v8.6l-16-4V782.4z
		 M542.1,786.8l18,4.7v8.4l-18-4.5V786.8z M561.1,791.7l17,4.4v8.3l-17-4.3V791.7z M579.1,796.4l16,4.2v8.1l-16-4V796.4z
		 M596.1,800.8l16,4.2v8l-16-4V800.8z M613.1,805.2l15,3.9v7.8l-15-3.8V805.2z M629.1,809.4l15,3.9v7.7l-15-3.8V809.4z M658.1,816.9
		l14,3.6v7.4l-14-3.5V816.9z M673.1,820.8l13,3.4v7.3l-13-3.3V820.8z M687.1,824.5l14,3.6v7.2l-14-3.5V824.5z M702.1,828.3l11,2.9
		v7.1l-11-2.8V828.3z M702.1,827.3v-7.2l11,3v7.1L702.1,827.3z M702.1,819.1v-6.3l11,3v6.3L702.1,819.1z M702.1,811.7v-7.2l11,3.1
		v7.1L702.1,811.7z M702.1,803.5v-7.2l11,3.2v7.1L702.1,803.5z M702.1,795.3v-7.2l11,3.3v7.1L702.1,795.3z M702.1,787.1v-6.3l11,3.4
		v6.3L702.1,787.1z M702.1,779.7v-7.2l11,3.5v7.1L702.1,779.7z M702.1,771.5v-7.2l11,3.6v7.1L702.1,771.5z M702.1,763.3V757l11,3.7
		v6.2L702.1,763.3z M702.1,755.9v-7.2l11,3.8v7.1L702.1,755.9z M702.1,747.7v-7.1l11,3.9v7L702.1,747.7z M702.1,739.5v-7.1l11,4v7
		L702.1,739.5z M702.1,731.3V725l11,4.1v6.2L702.1,731.3z M702.1,723.9v-7.1l11,4.2v7L702.1,723.9z M702.1,715.7v-7.1l11,4.3v7
		L702.1,715.7z M702.1,707.5v-7.1l11,4.4v7L702.1,707.5z M702.1,699.3V693l11,4.5v6.2L702.1,699.3z M702.1,691.9v-7.1l11,4.6v7
		L702.1,691.9z M702.1,683.7v-7.1l11,4.7v7L702.1,683.7z M702.1,675.5v-7.1l11,4.8v7L702.1,675.5z M702.1,667.3V661l11,4.8v6.2
		L702.1,667.3z M702.1,659.9v-7.1l11,4.9v7L702.1,659.9z M702.1,651.7v-7.1l11,5v7L702.1,651.7z M702.1,643.5v-6.3l11,5.1v6.2
		L702.1,643.5z M702.1,636.1V629l11,5.2v7L702.1,636.1z M702.1,627.9v-7.1l11,5.3v7L702.1,627.9z M702.1,619.7v-7.1l11,5.4v7
		L702.1,619.7z M702.1,611.5v-6.3l11,5.5v6.2L702.1,611.5z M702.1,604.1V597l11,5.6v7L702.1,604.1z M702.1,595.9v-7.1l11,5.7v7
		L702.1,595.9z M702.1,587.7v-6.3l11,5.8v6.2L702.1,587.7z M702.1,580.3v-7.1l11,5.9v7L702.1,580.3z M702.1,572.1V565l11,6v7
		L702.1,572.1z M702.1,563.8v-6.2l11,6.1v6.2L702.1,563.8z M702.1,556.5v-7.1l11,6.2v7L702.1,556.5z M702.1,548.2v-7.1l11,6.3v7
		L702.1,548.2z M702.1,540V533l11,6.4v7L702.1,540z M702.1,531.8v-6.2l11,6.5v6.1L702.1,531.8z M702.1,524.4v-7l11,6.6v6.9
		L702.1,524.4z M702.1,516.2v-7l11,6.7v6.9L702.1,516.2z M702.1,508v-6.2l11,6.7v6.1L702.1,508z M702.1,500.6v-7l11,6.8v6.9
		L702.1,500.6z M702.1,492.4v-7l11,6.9v6.9L702.1,492.4z M702.1,484.2v-7l11,7v6.9L702.1,484.2z M702.1,476v-6.2l11,7.1v6.1
		L702.1,476z M701.1,475.4l-14-9v-6.3l14,9.1V475.4z M686.1,465.8l-13-8.3v-6.4l13,8.4V465.8z M672.1,456.8l-14-8.9v-6.5l14,9.1
		V456.8z M657.1,447.3l-12-7.7v-6.7l12,7.8V447.3z M644.1,438.9l-15-9.6v-6.8l15,9.7V438.9z M628.1,428.7l-15-9.6v-6.9l15,9.7V428.7
		z M612.1,418.5l-16-10.2v-7l16,10.4V418.5z M595.1,407.6l-16-10.2v-7.2l16,10.4V407.6z M578.1,396.8l-17-10.9v-7.3l17,11V396.8z
		 M560.1,385.2l-18-11.5v-7.5l18,11.7V385.2z M541.1,373.1l-16-10.2v-7.6l16,10.4V373.1z M524.1,362.2l-19-12.1v-7.8l19,12.3V362.2z
		 M504.1,349.4l-18-11.5V330l18,11.7V349.4z M485.1,337.3l-18-11.5v-8.1l18,11.7V337.3z M466.1,325.2l-22-14.1v-8.3l22,14.2V325.2z
		 M443.1,310.4l-22-14.1v-8.4l22,14.2V310.4z M420.1,295.7l-21-13.4v-8.6l21,13.6V295.7z M398.1,281.7l-25-16v-8.8l25,16.2V281.7z
		 M372.1,265.1l-25-16v-9l25,16.2V265.1z M346.1,248.4l-24-15.3v-9.2l24,15.5V248.4z M321.1,232.5l-25-16V207l25,16.2V232.5z
		 M295.1,215.8l-29-18.5v-9.7l29,18.8V215.8z M265.1,196.7l-27-17.3v-9.9l27,17.5V196.7z M237.1,178.8l-29-18.5v-10.1l29,18.8V178.8
		z M207.1,159.6l-34-21.7v-10.4l34,22V159.6z M172.1,137.2l-31-19.8v-10.7l31,20.1V137.2z M140.1,116.8l-38-24.3v-11l38,24.6V116.8z
		 M101.1,91.8l-35-22.4V58.2l35,22.7V91.8z M101.1,93v12.4l-35-22.1V70.6L101.1,93z M101.1,106.5v12.4l-35-21.8V84.5L101.1,106.5z
		 M101.1,120.1v12.4l-35-21.4V98.3L101.1,120.1z M101.1,133.6v11l-35-21.2v-11.3L101.1,133.6z M101.1,145.8v12.4l-35-20.9v-12.7
		L101.1,145.8z M101.1,159.3v12.4l-35-20.5v-12.7L101.1,159.3z M101.1,172.9v11l-35-20.3v-11.3L101.1,172.9z M101.1,185v12.4l-35-20
		v-12.7L101.1,185z M101.1,198.6V211l-35-19.6v-12.7L101.1,198.6z M101.1,212.1v12.4l-35-19.3v-12.7L101.1,212.1z M101.1,225.6v11
		l-35-19.1v-11.3L101.1,225.6z M101.1,237.8v12.4l-35-18.7v-12.7L101.1,237.8z M101.1,251.4v12.4l-35-18.4v-12.7L101.1,251.4z
		 M101.1,264.9V276l-35-18.2v-11.3L101.1,264.9z M101.1,277.1v12.4l-35-17.8v-12.7L101.1,277.1z M101.1,290.6V303l-35-17.5v-12.7
		L101.1,290.6z M101.1,304.1v11.1l-35-17.3v-11.3L101.1,304.1z M101.1,316.3v12.4l-35-16.9v-12.7L101.1,316.3z M101.1,329.9v12.4
		l-35-16.6v-12.7L101.1,329.9z M101.1,343.4v12.4l-35-16.3v-12.7L101.1,343.4z M101.1,356.9V368l-35-16v-11.4L101.1,356.9z
		 M101.1,369.1v12.4l-35-15.7v-12.7L101.1,369.1z M101.1,382.7v12.4l-35-15.4v-12.8L101.1,382.7z M101.1,396.2v11.1l-35-15.1v-11.4
		L101.1,396.2z M101.1,408.4v12.5l-35-14.8v-12.8L101.1,408.4z M101.1,421.9v12.5l-35-14.5v-12.8L101.1,421.9z M101.1,435.4v12.5
		l-35-14.2v-12.8L101.1,435.4z M101.1,449v11.1l-35-13.9v-11.4L101.1,449z M101.1,461.2v12.5l-35-13.6v-12.8L101.1,461.2z
		 M101.1,474.7v12.5l-35-13.3v-12.8L101.1,474.7z M101.1,488.2v12.5l-35-13v-12.8L101.1,488.2z M101.1,501.8v11.1l-35-12.7v-11.4
		L101.1,501.8z M101.1,513.9v12.5l-35-12.4v-12.8L101.1,513.9z M101.1,527.5V540l-35-12.1v-12.8L101.1,527.5z M101.1,541v12.5
		l-35-11.8v-12.8L101.1,541z M101.1,554.5v11.1l-35-11.5v-11.4L101.1,554.5z M101.1,566.7v12.5l-35-11.2v-12.8L101.1,566.7z
		 M101.1,580.3v12.5l-35-10.9v-12.8L101.1,580.3z M101.1,593.8v11.1l-35-10.6v-11.4L101.1,593.8z M101.1,606v12.5l-35-10.3v-12.8
		L101.1,606z M101.1,619.5V632l-35-10v-12.8L101.1,619.5z M101.1,633.1v12.5l-35-9.7v-12.8L101.1,633.1z M101.1,646.6v11.1l-35-9.4
		v-11.4L101.1,646.6z M101.1,658.8v12.5l-35-9.1v-12.8L101.1,658.8z M101.1,672.3v12.5l-35-8.8v-12.8L101.1,672.3z M101.1,685.8V697
		l-35-8.5v-11.4L101.1,685.8z M102.1,686.1l38,9.5v10.8l-38-9.2V686.1z M141.1,695.9l31,7.8v10.6l-31-7.5V695.9z M173.1,703.9
		l34,8.5v10.3l-34-8.3V703.9z M208.1,712.7l29,7.3V730l-29-7V712.7z M237.1,731v11.3l-29-6.8V724L237.1,731z M238.1,741.9v-10.6
		l27,6.6v11.1l-26.3-7H238.1z M266.1,738.1l29,7v10.8l-29-6.8V738.1z M296.1,745.4l25,6.1V762l-25-5.8V745.4z M296.1,744.3v-9.6
		l25,6.3v9.4L296.1,744.3z M322.1,741.3l24,6v9.2l-24-5.8V741.3z M347.1,747.5l25,6.3v9l-25-6.1V747.5z M373.1,754.1l25,6.3v8.8
		l-25-6.1V754.1z M399.1,760.6l21,5.3v8.6l-21-5.1V760.6z M421.1,766.1l22,5.5v8.4l-22-5.3V766.1z M467.1,777.6l18,4.5v8.1l-18-4.4
		V777.6z M505.1,787.2l19,4.8v7.8l-19-4.6V787.2z M525.1,792.2l16,4v7.6l-16-3.9V792.2z M561.1,801.2l17,4.3v7.3l-17-4.1V801.2z
		 M579.1,805.7l16,4v7.2l-16-3.9V805.7z M596.1,810l16,4v7.1l-16-3.9V810z M613.1,814.2l15,3.8v6.9l-15-3.6V814.2z M629.1,818.2
		l15,3.8v6.8l-15-3.6V818.2z M644.1,829.9v7.7l-15-3.5v-7.8L644.1,829.9z M645.1,830.1l12,2.9v7.6l-12-2.8V830.1z M658.1,833.3
		l14,3.4v7.4l-14-3.3V833.3z M658.1,832.2v-6.7l14,3.5v6.6L658.1,832.2z M673.1,829.3l13,3.3v6.5l-13-3.2V829.3z M687.1,832.8
		l14,3.5v6.4l-14-3.4V832.8z M701.1,843.7v7.2l-14-3.3v-7.3L701.1,843.7z M702.1,843.9l11,2.7v7.1l-11-2.6V843.9z M702.1,842.9v-6.4
		l11,2.8v6.3L702.1,842.9z M714.1,839.6l11.8,3l0.2-0.6v6.9l-12-2.9V839.6z M714.1,838.5v-7.1l11.8,3.1l0.2-0.6v7.6L714.1,838.5z
		 M714.1,830.4v-7.1l11.8,3.2l0.2-0.6v7.6L714.1,830.4z M714.1,822.3v-6.3l11.8,3.3l0.2-0.6v6.8L714.1,822.3z M714.1,815V808
		l11.8,3.4l0.2-0.6v7.6L714.1,815z M714.1,806.9v-7.1l11.8,3.5l0.2-0.6v7.6L714.1,806.9z M714.1,798.8v-7.1l11.8,3.6l0.2-0.6v7.6
		L714.1,798.8z M714.1,790.7v-6.2l11.8,3.7l0.2-0.6v6.8L714.1,790.7z M714.1,783.4v-7l11.8,3.8l0.2-0.6v7.6L714.1,783.4z
		 M714.1,775.3v-7l11.8,3.9l0.2-0.6v7.6L714.1,775.3z M714.1,767.2V761l11.8,4l0.2-0.6v6.8L714.1,767.2z M714.1,759.9v-7l11.8,4.1
		l0.2-0.6v7.6L714.1,759.9z M714.1,751.8v-7l11.8,4.2l0.2-0.6v7.6L714.1,751.8z M714.1,743.7v-7l11.8,4.3l0.2-0.6v7.6L714.1,743.7z
		 M714.1,735.6v-6.2l11.8,4.4l0.2-0.6v6.8L714.1,735.6z M714.1,728.4v-7l11.8,4.5l0.2-0.6v7.6L714.1,728.4z M714.1,720.3v-7
		l11.8,4.6l0.2-0.6v7.6L714.1,720.3z M714.1,712.2v-7l11.8,4.7l0.2-0.6v7.6L714.1,712.2z M714.1,704.1v-6.2l11.8,4.8l0.2-0.6v6.8
		L714.1,704.1z M714.1,696.8v-7l11.8,4.9l0.2-0.6v7.6L714.1,696.8z M714.1,688.7v-7l11.8,5l0.2-0.6v7.6L714.1,688.7z M714.1,680.6
		v-7l11.8,5.1l0.2-0.6v7.6L714.1,680.6z M714.1,672.5v-6.2l11.8,5.2l0.2-0.5v6.8L714.1,672.5z M714.1,665.2v-7l11.8,5.3l0.2-0.5v7.6
		L714.1,665.2z M714.1,657.1v-7l11.8,5.4l0.2-0.5v7.5L714.1,657.1z M714.1,649v-6.2l11.7,5.5l0.3-0.5v6.7L714.1,649z M714.1,641.7
		v-7l11.7,5.6l0.3-0.5v7.5L714.1,641.7z M714.1,633.6v-7l11.7,5.7l0.3-0.5v7.5L714.1,633.6z M714.1,625.5v-7l11.7,5.8l0.3-0.5v7.5
		L714.1,625.5z M714.1,617.4v-6.2l11.7,5.9l0.3-0.5v6.7L714.1,617.4z M714.1,610.1v-7l11.7,6l0.3-0.5v7.5L714.1,610.1z M714.1,602
		v-7l11.7,6.1l0.3-0.5v7.5L714.1,602z M714.1,593.9v-6.2l11.7,6.2l0.3-0.5v6.7L714.1,593.9z M714.1,586.6v-7l11.7,6.3l0.3-0.5v7.5
		L714.1,586.6z M714.1,578.5v-7l11.7,6.4l0.3-0.5v7.5L714.1,578.5z M714.1,570.4v-6.1l11.7,6.5l0.3-0.5v6.7L714.1,570.4z
		 M714.1,563.1v-7l11.7,6.6l0.3-0.5v7.5L714.1,563.1z M714.1,555V548l11.7,6.7l0.3-0.5v7.5L714.1,555z M714.1,546.9v-6.9l11.7,6.8
		l0.3-0.5v7.5L714.1,546.9z M714.1,538.8v-6.1l11.7,6.9l0.3-0.5v6.7L714.1,538.8z M714.1,531.5v-6.9l11.7,7l0.3-0.5v7.5L714.1,531.5
		z M714.1,523.4v-6.9l11.7,7.1l0.3-0.5v7.5L714.1,523.4z M714.1,515.3v-6.1l11.7,7.2l0.3-0.5v6.7L714.1,515.3z M714.1,508v-6.9
		l11.7,7.3l0.3-0.5v7.5L714.1,508z M714.1,499.9V493l11.7,7.4l0.3-0.5v7.5L714.1,499.9z M714.1,491.8v-6.9l11.7,7.5l0.3-0.5v7.5
		L714.1,491.8z M714.1,483.7v-6.1l11.7,7.6l0.3-0.5v6.7L714.1,483.7z M713.1,468.8v6.9l-11-7.1v-7L713.1,468.8z M701.1,461v7
		l-14-9.1v-7.1L701.1,461z M686.1,451.1v7.2l-13-8.4v-7.3L686.1,451.1z M672.1,441.9v7.3l-14-9.1v-7.4L672.1,441.9z M657.1,432.1
		v7.4l-12-7.8v-7.5L657.1,432.1z M644.1,423.6v7.5l-15-9.7v-7.7L644.1,423.6z M628.1,413.1v7.7l-15-9.7v-7.8L628.1,413.1z
		 M612.1,402.6v7.8l-16-10.4v-8L612.1,402.6z M595.1,391.4v8l-16-10.4v-8.1L595.1,391.4z M578.1,380.3v8.1l-17-11v-8.3L578.1,380.3z
		 M560.1,368.5v8.3l-18-11.7v-8.4L560.1,368.5z M541.1,356v8.4l-16-10.4v-8.6L541.1,356z M524.1,344.8v8.6l-19-12.3v-8.8
		L524.1,344.8z M504.1,331.7v8.8l-18-11.7v-8.9L504.1,331.7z M485.1,319.2v8.9l-18-11.7v-9.1L485.1,319.2z M466.1,306.8v9.1
		l-22-14.2v-9.3L466.1,306.8z M443.1,291.7v9.3l-22-14.2v-9.5L443.1,291.7z M420.1,276.6v9.5l-21-13.6v-9.7L420.1,276.6z
		 M398.1,262.2v9.7l-25-16.2v-9.9L398.1,262.2z M372.1,245.1v9.9l-25-16.2v-10.2L372.1,245.1z M346.1,228v10.2l-24-15.5v-10.4
		L346.1,228z M321.1,211.6V222l-25-16.2v-10.6L321.1,211.6z M295.1,194.6v10.6l-29-18.8v-10.9L295.1,194.6z M265.1,174.9v10.9
		l-27-17.5v-11.1L265.1,174.9z M237.1,156.5v11.1l-29-18.8v-11.4L237.1,156.5z M207.1,136.8v11.4l-34-22v-11.7L207.1,136.8z
		 M172.1,113.9v11.7l-31-20.1v-12L172.1,113.9z M140.1,92.9v12l-38-24.6V67.9L140.1,92.9z M101.1,67.3v12.3L66.1,57V44.3L101.1,67.3
		z M28.1,19.4l37,24.3v12.7l-37-23.9V19.4z M28.1,33.6l37,23.9v11.3l-37-23.7V33.6z M28.1,46.3l37,23.7v12.7l-37-23.3V46.3z
		 M28.1,60.5l37,23.3v12.7l-37-23V60.5z M28.1,74.7l37,23v12.7l-37-22.7V74.7z M28.1,88.9l37,22.7v11.3l-37-22.4V88.9z M28.1,101.7
		l37,22.4v12.7l-37-22V101.7z M28.1,115.8l37,22v12.7l-37-21.7V115.8z M28.1,130l37,21.7V163l-37-21.4V130z M28.1,142.8l37,21.4
		v12.7l-37-21.1V142.8z M28.1,157l37,21.1v12.7l-37-20.8V157z M28.1,171.1l37,20.8v12.7l-37-20.4V171.1z M28.1,185.3l37,20.4v11.3
		l-37-20.1V185.3z M28.1,198.1l37,20.1V231l-37-19.8V198.1z M28.1,212.3l37,19.8v12.7l-37-19.5V212.3z M28.1,226.5l37,19.5v11.3
		l-37-19.2V226.5z M28.1,239.2l37,19.2v12.7l-37-18.9V239.2z M28.1,253.4l37,18.9V285l-37-18.5V253.4z M28.1,267.6l37,18.5v11.4
		l-37-18.2V267.6z M28.1,280.3l37,18.2v12.7l-37-17.9V280.3z M28.1,294.5l37,17.9v12.7l-37-17.6V294.5z M28.1,308.7l37,17.6V339
		l-37-17.3V308.7z M28.1,322.9l37,17.3v11.4l-37-17V322.9z M28.1,335.7l37,17v12.8l-37-16.6V335.7z M28.1,349.8l37,16.6v12.8
		l-37-16.3V349.8z M28.1,364l37,16.3v11.4l-37-16V364z M28.1,376.8l37,16v12.8l-37-15.7V376.8z M28.1,391l37,15.7v12.8l-37-15.3V391
		z M28.1,405.2l37,15.3v12.8l-37-15V405.2z M28.1,419.3l37,15v11.4l-37-14.7V419.3z M28.1,432.1l37,14.7v12.8l-37-14.4V432.1z
		 M28.1,446.3l37,14.4v12.8l-37-14.1V446.3z M28.1,460.5l37,14.1v12.8l-37-13.7V460.5z M28.1,474.7l37,13.7v11.4l-37-13.4V474.7z
		 M28.1,487.4l37,13.4v12.8l-37-13.1V487.4z M28.1,501.6l37,13.1v12.8l-37-12.8V501.6z M28.1,515.8l37,12.8v12.8l-37-12.5V515.8z
		 M28.1,530l37,12.5v11.4l-37-12.2V530z M28.1,542.7l37,12.2v12.8l-37-11.8V542.7z M28.1,556.9l37,11.8v12.8l-37-11.5V556.9z
		 M28.1,571.1l37,11.5V594l-37-11.2V571.1z M28.1,583.9l37,11.2v12.8l-37-10.9V583.9z M28.1,598l37,10.9v12.8l-37-10.6V598z
		 M28.1,612.2l37,10.6v12.8l-37-10.2V612.2z M28.1,626.4l37,10.2v11.4l-37-9.9V626.4z M28.1,639.2l37,9.9v12.8l-37-9.6V639.2z
		 M28.1,653.4l37,9.6v12.8l-37-9.3V653.4z M28.1,667.5l37,9.3v11.4l-37-9V667.5z M28.1,693.5v-13.2l37,9v12.8L28.1,693.5z
		 M66.1,702.4v-12.8l35,8.5v12.5L66.1,702.4z M102.1,698.3l38,9.2v12.2l-38-8.9V698.3z M141.1,719.9v-12.2l31,7.5v11.9L141.1,719.9z
		 M173.1,727.4v-11.9l34,8.3v11.6L173.1,727.4z M322.1,762.2v-10.5l24,5.8v10.3L322.1,762.2z M347.1,768.1v-10.3l25,6.1v10.1
		L347.1,768.1z M373.1,764.1l25,6.1v9.9l-25-5.8V764.1z M399.1,780.2v-9.9l21,5.1v9.7L399.1,780.2z M421.1,775.7l22,5.3v9.5l-22-5.1
		V775.7z M467.1,796.1v-9.3l18,4.4v9.1L467.1,796.1z M505.1,805v-8.9l19,4.6v8.8L505.1,805z M525.1,809.7V801l16,3.9v8.6
		L525.1,809.7z M561.1,818.1v-8.4l17,4.1v8.3L561.1,818.1z M579.1,822.3v-8.3l16,3.9v8.1L579.1,822.3z M596.1,826.3v-8.1l16,3.9v8
		L596.1,826.3z M613.1,822.3l15,3.6v7.8l-15-3.5V822.3z M673.1,844.3v-7.4l13,3.2v7.3L673.1,844.3z M714.1,853.9v-7.1l11.8,2.9
		l0.2-0.7v7.7L714.1,853.9z"/>
</g>
<g id="divs" display="none">
</g>
</svg>
