<?xml version="1.0" encoding="UTF-8" standalone="no"?>
<svg width="21px" height="31px" viewBox="0 0 21 31" version="1.1" xmlns="http://www.w3.org/2000/svg" xmlns:xlink="http://www.w3.org/1999/xlink">
    <!-- Generator: Sketch 3.6 (26304) - http://www.bohemiancoding.com/sketch -->
    <title>o</title>
    <desc>Created with Sketch.</desc>
    <defs></defs>
    <g id="Page-1" stroke="none" stroke-width="1" fill="none" fill-rule="evenodd">
        <g id="v1-black-and-white" transform="translate(-1052.000000, -33.000000)" stroke="#2CBBA5">
            <g id="o" transform="translate(1053.000000, 33.000000)">
                <path d="M19.1420461,14.4163793 C19.1420461,16.720852 19.1672015,18.994162 18.9167306,21.204906 C18.7661591,22.5346733 18.2955482,23.7497764 17.5050181,24.8499746 C16.7135251,25.9502933 15.64448,26.795415 14.2981234,27.3844975 C12.950804,27.9744223 11.3819003,29.9600492 9.59056965,29.9600492 C7.89107436,29.9600492 6.36381546,27.9905451 5.01083908,27.4338284 C3.6578627,26.8769914 2.56895804,26.0423374 1.7453287,24.9287837 C0.921579001,23.81523 0.431108514,22.6030145 0.273917236,21.2931 C0.116725958,19.9831854 0.039093206,17.6915869 0.039093206,14.4163793" id="Stroke-1"></path>
                <path d="M8.01564785,19.119715 C6.16594221,19.119715 4.8564161,19.0764001 4.08743059,18.9891687 C3.31784328,18.9019374 2.61481552,18.6291739 1.97810659,18.1709985 C1.34139767,17.7123419 0.852371509,17.092939 0.511509565,16.3126693 C0.170166178,15.5319183 -2.40721711e-05,14.6227868 -2.40721711e-05,13.5846732 C-2.40721711e-05,12.5997407 0.160778031,11.7147933 0.482984043,10.9306734 C0.805190054,10.1466739 1.28819817,9.51572023 1.93261019,9.03829385 C2.57690185,8.56098779 3.27836492,8.27679396 4.03639759,8.18571236 C4.7943099,8.09463077 6.12044581,8.0496314 8.01564785,8.0496314 L11.16501,8.0496314 C13.0147156,8.0496314 14.3243621,8.0929463 15.0938291,8.18017768 C15.8628146,8.26692779 16.5658423,8.54017257 17.2025513,8.99822757 C17.8392602,9.45700449 18.3282863,10.0764075 18.6697501,10.8566771 C19.0104917,11.6374281 19.1812837,12.5465596 19.1812837,13.5846732 C19.1812837,14.5694854 19.0198798,15.4545531 18.6976738,16.238673 C18.3754678,17.0226726 17.8924597,17.6536262 17.248168,18.1310526 C16.603756,18.6083586 15.9028947,18.8925525 15.1448621,18.9836341 C14.3869498,19.0747157 13.0603324,19.119715 11.16501,19.119715 L8.01564785,19.119715 L8.01564785,19.119715 Z" id="Stroke-3"></path>
                <path d="M3.04622494,8.387271 L6.4639918,15.6901621 L13.0208901,15.6901621 L16.0997208,8.41578664" id="Stroke-5"></path>
                <path d="M4.08741856,18.9891326 L6.46406402,15.6496747 L0.0390811699,14.4164034" id="Stroke-7"></path>
                <path d="M19.1420461,14.4008461 L13.0209744,15.6496386 L15.1448621,18.9836822" id="Stroke-9"></path>
                <path d="M0,1.73940941 L3.88067472,4.96648931" id="Stroke-11" stroke-linecap="round"></path>
                <path d="M6,4.86140256 L6,0.529913202" id="Stroke-13" stroke-linecap="round"></path>
                <path d="M11.2529818,4.08420102 L13.0948639,0.0797391064" id="Stroke-15" stroke-linecap="round"></path>
                <path d="M15.2410304,6.23290851 L18.9031298,2.27091926" id="Stroke-17" stroke-linecap="round"></path>
            </g>
        </g>
    </g>
</svg>