<?xml version="1.0" encoding="utf-8"?>
<!-- Generator: Adobe Illustrator 18.0.0, SVG Export Plug-In . SVG Version: 6.00 Build 0)  -->
<!DOCTYPE svg PUBLIC "-//W3C//DTD SVG 1.1//EN" "http://www.w3.org/Graphics/SVG/1.1/DTD/svg11.dtd">
<svg version="1.1" xmlns="http://www.w3.org/2000/svg" xmlns:xlink="http://www.w3.org/1999/xlink" x="0px" y="0px"
	 viewBox="0 0 627.9 999.7" enable-background="new 0 0 627.9 999.7" xml:space="preserve">
<g id="Layer_2">
</g>
<g id="Layer_1">
	<g>
		<polygon fill="#E4F2D3" points="441.2,490.9 345.2,312 304,353.9 		"/>
		<polygon fill="#E4F2D3" points="519.9,521.7 470.9,430.3 449.8,451.8 		"/>
		<polygon fill="#E4F2D3" points="381.1,484.1 352.2,430.4 339.9,443 		"/>
		<polygon fill="#E4F2D3" points="144.2,436.9 48.2,258 7,299.9 		"/>
		<polygon fill="#E4F2D3" points="222.9,467.7 173.9,376.3 152.8,397.8 		"/>
		<polygon fill="#E4F2D3" points="84.1,430.1 55.2,376.4 42.9,389 		"/>
		<polygon fill="#E4F2D3" points="137.2,636.9 41.2,458 0,499.9 		"/>
		<polygon fill="#E4F2D3" points="215.9,667.7 166.9,576.3 145.8,597.8 		"/>
		<polygon fill="#E4F2D3" points="77.1,630.1 48.2,576.4 35.9,589 		"/>
		<polygon fill="#E4F2D3" points="210.2,882.9 114.2,704 73,745.9 		"/>
		<polygon fill="#E4F2D3" points="288.9,913.7 239.9,822.3 218.8,843.8 		"/>
		<polygon fill="#E4F2D3" points="150.1,876.1 121.2,822.4 108.9,835 		"/>
		<polygon fill="#E4F2D3" points="137.2,178.9 41.2,0 0,41.9 		"/>
		<polygon fill="#E4F2D3" points="215.9,209.7 166.9,118.3 145.8,139.8 		"/>
		<polygon fill="#E4F2D3" points="77.1,172.1 48.2,118.4 35.9,131 		"/>
		<polygon fill="#E4F2D3" points="549.2,723.9 453.2,545 412,586.9 		"/>
		<polygon fill="#E4F2D3" points="627.9,754.7 578.9,663.3 557.8,684.8 		"/>
		<polygon fill="#E4F2D3" points="489.1,717.1 460.2,663.4 447.9,676 		"/>
		<polygon fill="#E4F2D3" points="381.2,762.9 285.2,584 244,625.9 		"/>
		<polygon fill="#E4F2D3" points="459.9,793.7 410.9,702.3 389.8,723.8 		"/>
		<polygon fill="#E4F2D3" points="321.1,756.1 292.2,702.4 279.9,715 		"/>
		<polygon fill="#E4F2D3" points="498.2,968.9 402.2,790 361,831.9 		"/>
		<polygon fill="#E4F2D3" points="576.9,999.7 527.9,908.3 506.8,929.8 		"/>
		<polygon fill="#E4F2D3" points="438.1,962.1 409.2,908.4 396.9,921 		"/>
	</g>
</g>
<g id="divs" display="none">
</g>
</svg>
