<?xml version="1.0" encoding="utf-8"?>
<!-- Generator: Adobe Illustrator 18.0.0, SVG Export Plug-In . SVG Version: 6.00 Build 0)  -->
<!DOCTYPE svg PUBLIC "-//W3C//DTD SVG 1.1//EN" "http://www.w3.org/Graphics/SVG/1.1/DTD/svg11.dtd">
<svg version="1.1" xmlns="http://www.w3.org/2000/svg" xmlns:xlink="http://www.w3.org/1999/xlink" x="0px" y="0px"
	 viewBox="0 0 401.5 400.8" enable-background="new 0 0 401.5 400.8" xml:space="preserve">
<g id="Layer_2">
</g>
<g id="Layer_1">
	<g>
		<g>
			
				<rect x="58.7" y="58.7" transform="matrix(-0.7071 0.7071 -0.7071 -0.7071 483.8241 200.4065)" fill="#222A2E" width="283.4" height="283.4"/>
			<line fill="#222A2E" x1="199.5" y1="400" x2="199.5" y2="0"/>
			<line fill="#222A2E" x1="401.5" y1="202" x2="1.5" y2="202"/>
		</g>
		<g>
			
				<rect x="69.1" y="69.3" transform="matrix(-0.7071 0.7071 -0.7071 -0.7071 483.9923 200.7192)" fill="#E4F2D3" width="262.7" height="262.7"/>
			<line fill="#E4F2D3" x1="199.5" y1="386" x2="199.5" y2="15"/>
			<line fill="#E4F2D3" x1="386.5" y1="202" x2="15.5" y2="202"/>
		</g>
		<g>
			
				<rect x="82.8" y="82.5" transform="matrix(-0.7071 0.7071 -0.7071 -0.7071 483.7125 199.9347)" fill="#222A2E" width="235.2" height="235.2"/>
			<line fill="#222A2E" x1="199.5" y1="367" x2="199.5" y2="34"/>
			<line fill="#222A2E" x1="367.5" y1="202" x2="34.5" y2="202"/>
		</g>
		<g>
			
				<rect x="96.6" y="95.8" transform="matrix(-0.7071 0.7071 -0.7071 -0.7071 483.5164 199.2229)" fill="#E4F2D3" width="207.9" height="207.9"/>
			<line fill="#E4F2D3" x1="199.5" y1="348" x2="199.5" y2="53"/>
			<line fill="#E4F2D3" x1="348.5" y1="202" x2="53.5" y2="202"/>
		</g>
		<g>
			
				<rect x="109.7" y="109.3" transform="matrix(-0.7071 0.7071 -0.7071 -0.7071 483.9535 199.9179)" fill="#222A2E" width="181.7" height="181.7"/>
			<line fill="#222A2E" x1="199.5" y1="329" x2="199.5" y2="72"/>
			<line fill="#222A2E" x1="329.5" y1="202" x2="72.5" y2="202"/>
		</g>
		<g>
			
				<rect x="123.2" y="122.7" transform="matrix(-0.7071 0.7071 -0.7071 -0.7071 483.9663 199.7128)" fill="#E4F2D3" width="154.8" height="154.8"/>
			<line fill="#E4F2D3" x1="199.5" y1="310" x2="199.5" y2="91"/>
			<line fill="#E4F2D3" x1="310.5" y1="202" x2="91.5" y2="202"/>
		</g>
		<g>
			
				<rect x="136.5" y="136.2" transform="matrix(-0.7071 0.7071 -0.7071 -0.7071 484.3168 200.2722)" fill="#222A2E" width="128.5" height="128.5"/>
			<line fill="#222A2E" x1="199.5" y1="291" x2="199.5" y2="110"/>
			<line fill="#222A2E" x1="291.5" y1="202" x2="110.5" y2="202"/>
		</g>
		<g>
			
				<rect x="149.4" y="149.8" transform="matrix(-0.7071 0.7071 -0.7071 -0.7071 484.8117 201.3329)" fill="#E4F2D3" width="102.6" height="102.6"/>
			<line fill="#E4F2D3" x1="199.5" y1="274" x2="199.5" y2="129"/>
			<line fill="#E4F2D3" x1="272.5" y1="202" x2="129.5" y2="202"/>
		</g>
		<g>
			
				<rect x="161.2" y="161.8" transform="matrix(-0.7071 0.7071 -0.7071 -0.7071 484.9798 201.7388)" fill="#222A2E" width="79.1" height="79.1"/>
			<line fill="#222A2E" x1="199.5" y1="257" x2="199.5" y2="145"/>
			<line fill="#222A2E" x1="255.5" y1="202" x2="146.5" y2="202"/>
		</g>
		<g>
			
				<rect x="172.6" y="172.3" transform="matrix(-0.7071 0.7071 -0.7071 -0.7071 484.3773 200.2843)" fill="#E4F2D3" width="56.3" height="56.3"/>
			<line fill="#E4F2D3" x1="199.5" y1="240" x2="199.5" y2="160"/>
			<line fill="#E4F2D3" x1="239.5" y1="200" x2="161.5" y2="200"/>
		</g>
	</g>
</g>
<g id="divs" display="none">
</g>
</svg>
