<?xml version="1.0" encoding="utf-8"?>
<!-- Generator: Adobe Illustrator 18.0.0, SVG Export Plug-In . SVG Version: 6.00 Build 0)  -->
<!DOCTYPE svg PUBLIC "-//W3C//DTD SVG 1.1//EN" "http://www.w3.org/Graphics/SVG/1.1/DTD/svg11.dtd">
<svg version="1.1" xmlns="http://www.w3.org/2000/svg" xmlns:xlink="http://www.w3.org/1999/xlink" x="0px" y="0px"
	 viewBox="0 0 399.4 821.1" enable-background="new 0 0 399.4 821.1" xml:space="preserve">
<g id="Layer_2">
</g>
<g id="Layer_1">
	<g>
		<g>
			<path fill="#222A2E" d="M-10.8,821.1l1.4-1.4c0-0.7,0-0.8,0-1.7c0,0.9,0,1,0,1.7l408.9-407.7L-9.6,1.8 M-7.4,792c0-1-1-1-1-2
				C-8.4,791-7.4,791-7.4,792z M-7.3,752c-1-1-2,1-2-1C-9.3,753-8.3,751-7.3,752z M-8.2,673c-2,0,0-1-1-2C-8.2,672-10.2,673-8.2,673
				z M-9.1,600c0-1,0-2,0-3C-9.1,598-9.1,599-9.1,600z M-7.1,559c0-2-3,0-2-2C-10.1,559-7.1,557-7.1,559z"/>
			<path fill="#222A2E" d="M398.2,413.6"/>
		</g>
		<g>
			<path fill="#E4F2D3" d="M-10.4,791L369.8,412L-9.3,31.8 M-7.3,752c-1-1-2,1-2-1C-9.3,753-8.3,751-7.3,752z M-8.2,673
				c-2,0,0-1-1-2C-8.2,672-10.2,673-8.2,673z M-9.1,600c0-1,0-2,0-3C-9.1,598-9.1,599-9.1,600z M-7.1,559c0-2-3,0-2-2
				C-10.1,559-7.1,557-7.1,559z"/>
			<path fill="#E4F2D3" d="M369.2,413.6"/>
		</g>
		<g>
			<path fill="#222A2E" d="M-11.2,751.3l340.5-339.5L-10.2,71.4 M-8.2,673c-2,0,0-1-1-2C-8.2,672-10.2,673-8.2,673z M-9.1,600
				c0-1,0-2,0-3C-9.1,598-9.1,599-9.1,600z M-7.1,559c0-2-3,0-2-2C-10.1,559-7.1,557-7.1,559z"/>
			<path fill="#222A2E" d="M330.2,413.5"/>
		</g>
		<g>
			<path fill="#E4F2D3" d="M-12,711.7l300.9-300l-300-300.9 M-8.2,673c-2,0,0-1-1-2C-8.2,672-10.2,673-8.2,673z M-9.1,600
				c0-1,0-2,0-3C-9.1,598-9.1,599-9.1,600z M-7.1,559c0-2-3,0-2-2C-10.1,559-7.1,557-7.1,559z"/>
			<path fill="#E4F2D3" d="M291.2,413.4"/>
		</g>
		<g>
			<path fill="#222A2E" d="M-11,673.7l2.1-2.1c0-0.2-0.1-0.4-0.3-0.6c0.2,0.2,0.3,0.4,0.3,0.6l260.9-260.1l-262.2-263 M-9.1,600
				c0-1,0-2,0-3C-9.1,598-9.1,599-9.1,600z M-7.1,559c0-2-3,0-2-2C-10.1,559-7.1,557-7.1,559z"/>
			<path fill="#222A2E" d="M252.2,413.4"/>
		</g>
		<g>
			<path fill="#E4F2D3" d="M-11.2,634.7l224-223.3l-223.3-224 M-9.1,600c0-1,0-2,0-3C-9.1,598-9.1,599-9.1,600z M-7.1,559
				c0-2-3,0-2-2C-10.1,559-7.1,557-7.1,559z"/>
			<path fill="#E4F2D3" d="M214.2,413.3"/>
		</g>
		<g>
			<path fill="#222A2E" d="M-10.4,596.5l185.9-185.4L-9.9,225.2 M-7.1,559c0-2-3,0-2-2C-10.1,559-7.1,557-7.1,559z"/>
			<path fill="#222A2E" d="M175.2,413.3"/>
		</g>
		<g>
			<path fill="#E4F2D3" d="M-9.1,559.1l1-1c-0.8-0.1-1.6,0.2-1-1c-0.6,1.2,0.3,1,1,1l147.4-147l-148-148.4"/>
			<path fill="#E4F2D3" d="M140.2,413.2"/>
		</g>
		<g>
			<polyline fill="#222A2E" points="-8.2,296.6 105.9,411 -8.5,525.1 			"/>
			<path fill="#222A2E" d="M105.2,413.2"/>
		</g>
		<g>
			<polyline fill="#E4F2D3" points="-10,329.5 71.2,410.9 -10.2,492.2 			"/>
			<path fill="#E4F2D3" d="M71.2,413.1"/>
		</g>
	</g>
</g>
<g id="divs" display="none">
</g>
</svg>
