<?xml version="1.0" encoding="utf-8"?>
<!-- Generator: Adobe Illustrator 18.0.0, SVG Export Plug-In . SVG Version: 6.00 Build 0)  -->
<!DOCTYPE svg PUBLIC "-//W3C//DTD SVG 1.1//EN" "http://www.w3.org/Graphics/SVG/1.1/DTD/svg11.dtd">
<svg version="1.1" id="Layer_1" xmlns="http://www.w3.org/2000/svg" xmlns:xlink="http://www.w3.org/1999/xlink" x="0px" y="0px"
	 viewBox="0 0 200 200" enable-background="new 0 0 200 200" xml:space="preserve">
<polygon fill="#FF1F8F" points="103,25.3 117.7,7.6 126.3,29 145.8,16.7 147.3,39.7 169.7,34 164,56.4 187,57.9 174.7,77.4 
	196.1,86 178.4,100.7 196.1,115.5 174.7,124 187,143.5 164,145.1 169.7,167.4 147.3,161.7 145.8,184.7 126.3,172.5 117.7,193.8 
	103,176.1 88.2,193.8 79.7,172.5 60.2,184.7 58.6,161.7 36.3,167.4 41.9,145.1 19,143.5 31.2,124 9.8,115.5 27.5,100.7 9.8,86 
	31.2,77.4 19,57.9 41.9,56.4 36.3,34 58.6,39.7 60.2,16.7 79.7,29 88.2,7.6 "/>
</svg>
